<?xml version="1.0" encoding="UTF-8"?>
<svg version="1.1" xmlns="http://www.w3.org/2000/svg" width="3070" height="528">
<path d="M0 0 C1.50546025 1.39040843 3.002454 2.7893402 4.49682617 4.19165039 C6.69455336 6.2349253 8.92820557 8.18360716 11.22729492 10.10961914 C57.07497581 50.08425 81.40057437 113.5387675 85.85229492 172.73461914 C85.98227286 175.38291959 86.0919694 178.02248398 86.16479492 180.67211914 C86.18670898 181.4684375 86.20862305 182.26475586 86.23120117 183.08520508 C87.60173914 243.41171779 71.07135293 304.58774958 32.16479492 351.67211914 C31.73489258 352.19676758 31.30499023 352.72141602 30.86206055 353.26196289 C16.38290307 370.89060134 0.43390875 389.15296435 -18.83520508 401.67211914 C-21.83520508 401.67211914 -21.83520508 401.67211914 -23.37817383 400.20336914 C-23.92086914 399.53305664 -24.46356445 398.86274414 -25.02270508 398.17211914 C-28.73087321 393.74724625 -32.71612632 389.71228834 -36.83520508 385.67211914 C-38.19192804 384.34138704 -39.54610973 383.00805894 -40.89770508 381.67211914 C-41.48680664 381.09461914 -42.0759082 380.51711914 -42.68286133 379.92211914 C-44.4704752 378.05339757 -46.14952774 376.15168773 -47.83105469 374.18945312 C-52.91348026 368.34905926 -58.39114928 362.8906769 -63.83911133 357.39477539 C-64.41097609 356.81758696 -64.98284084 356.24039852 -65.57203484 355.64571953 C-68.60000215 352.59118941 -71.63152736 349.54023653 -74.66552734 346.49169922 C-77.14822243 343.99569079 -79.62345253 341.49262968 -82.09228516 338.98291016 C-85.10405605 335.92130381 -88.12840153 332.87264394 -91.16166496 329.83233452 C-92.30158698 328.68578715 -93.43732551 327.5350617 -94.56836128 326.37974739 C-117.43476315 303.05074386 -143.80311651 296.9689615 -175.67138672 296.59423828 C-180.58050119 296.56415024 -185.48855356 296.58446683 -190.39770508 296.60961914 C-196.15208008 296.63024414 -201.90645508 296.65086914 -207.83520508 296.67211914 C-208.16520508 311.19211914 -208.49520508 325.71211914 -208.83520508 340.67211914 C-226.65520508 340.67211914 -244.47520508 340.67211914 -262.83520508 340.67211914 C-262.83520508 310.97211914 -262.83520508 281.27211914 -262.83520508 250.67211914 C-245.70163086 250.63344727 -245.70163086 250.63344727 -228.22192383 250.59399414 C-220.98037028 250.56882417 -213.73884323 250.5426526 -206.49731445 250.51196289 C-195.0063496 250.46344998 -183.51547289 250.41899564 -172.02441406 250.40112305 C-163.6546662 250.38808633 -155.28509801 250.36107024 -146.91545135 250.31750607 C-142.48677581 250.29493659 -138.0583215 250.27920574 -133.62958336 250.28023529 C-129.45405754 250.28098458 -125.27901993 250.26292665 -121.10362053 250.23095131 C-119.57794677 250.22249012 -118.05221801 250.22067648 -116.52653122 250.22631645 C-107.26029587 250.25598631 -97.30393781 250.27580638 -89.84301281 243.99505234 C-85.81705927 239.80213019 -83.93703716 235.30625146 -83.77270508 229.44165039 C-83.99589653 225.27773482 -84.68924351 222.91096534 -86.89770508 219.29711914 C-94.26323652 212.71515487 -103.79914228 212.54488674 -113.2890625 212.55186462 C-114.34674678 212.55058299 -114.34674678 212.55058299 -115.42579842 212.54927546 C-117.76411693 212.54764192 -120.10236204 212.55310683 -122.44067383 212.55859375 C-124.12656147 212.55887611 -125.81244923 212.55871694 -127.49833679 212.55815125 C-132.05764586 212.55786517 -136.61692845 212.56373125 -141.17623138 212.5707252 C-145.94748296 212.57699031 -150.71873518 212.57756504 -155.48999023 212.57875061 C-164.51725971 212.58185463 -173.54451703 212.59005547 -182.57178116 212.6001001 C-192.85230146 212.61129012 -203.13282236 212.61677896 -213.41334724 212.62179554 C-234.5539733 212.63223887 -255.69458842 212.64982029 -276.83520508 212.67211914 C-275.15830682 209.23257751 -273.21681147 206.12280513 -271.08911133 202.93774414 C-270.71850082 202.3820575 -270.34789032 201.82637085 -269.96604919 201.25384521 C-269.17784057 200.07304088 -268.38851213 198.89298337 -267.59814453 197.71362305 C-266.04455822 195.39509217 -264.49556551 193.07356743 -262.95411682 190.74694824 C-262.15967014 189.56847112 -261.34752298 188.40176086 -260.51939392 187.2467041 C-258.21858974 183.99728562 -256.50119094 180.98705747 -255.10888672 177.24829102 C-252.96752748 172.1869343 -250.77400283 168.36801769 -245.83520508 165.67211914 C-234.4325649 163.10305031 -222.36887551 164.09255 -210.77630615 164.57348633 C-206.38635547 164.73821014 -201.99494384 164.81045225 -197.6027832 164.89086914 C-189.00954404 165.06165217 -180.42348436 165.33407072 -171.83520508 165.67211914 C-177.20620794 157.0448916 -182.58186598 148.42556139 -188.14770508 139.92211914 C-189.25193994 138.2294553 -190.35610445 136.53674555 -191.46020508 134.84399414 C-192.01450195 133.99514648 -192.56879883 133.14629883 -193.13989258 132.27172852 C-194.85477584 129.64210913 -196.56457675 127.00925567 -198.27270508 124.37524414 C-204.07043947 115.43568353 -209.88743702 106.51291033 -215.83520508 97.67211914 C-220.02881439 101.40990136 -222.87017463 105.97093814 -225.96020508 110.60961914 C-229.77095319 116.26180258 -233.61863641 121.81500321 -237.83520508 127.17211914 C-241.86068711 132.29842069 -245.56133006 137.58456318 -249.21020508 142.98461914 C-253.76256271 149.71941291 -258.46972394 156.28620377 -263.38769531 162.7578125 C-267.47244198 168.14667273 -271.38548061 173.64253619 -275.26733398 179.17871094 C-278.89629424 184.35142124 -282.5685592 189.49048732 -286.27270508 194.60961914 C-286.8120166 195.3551001 -287.35132813 196.10058105 -287.90698242 196.86865234 C-290.09707845 199.89414246 -292.28893094 202.91835809 -294.48071289 205.94262695 C-300.30983369 213.98840687 -306.11847624 222.04596886 -311.83520508 230.17211914 C-315.94360484 236.01208021 -320.08888618 241.82343331 -324.27270508 247.60961914 C-324.80629639 248.34801025 -325.3398877 249.08640137 -325.88964844 249.84716797 C-328.71926604 253.75898572 -331.55803698 257.66390991 -334.40551758 261.56274414 C-334.99018799 262.36591064 -335.5748584 263.16907715 -336.17724609 263.99658203 C-337.28931525 265.52400042 -338.40419705 267.04937672 -339.52246094 268.57226562 C-345.07213486 276.20450124 -349.48669 282.90036649 -349.35864258 292.64477539 C-347.77695889 301.79257287 -338.61677861 309.31747215 -332.41333008 315.90649414 C-330.37307657 318.09512972 -328.43469024 320.31137435 -326.52270508 322.60961914 C-317.24176438 333.26060346 -306.09459086 342.21718701 -294.83520508 350.67211914 C-294.29492676 351.08526367 -293.75464844 351.4984082 -293.19799805 351.92407227 C-252.66629298 382.8216934 -201.50547853 398.61931764 -150.71020508 392.36743164 C-138.62954542 390.72763383 -126.73993499 388.27267155 -115.17114258 384.40649414 C-112.83520508 383.67211914 -112.83520508 383.67211914 -110.83520508 383.67211914 C-110.83520508 384.33211914 -110.83520508 384.99211914 -110.83520508 385.67211914 C-151.08769099 405.22002178 -196.50728964 413.83346212 -240.83520508 404.67211914 C-241.65311523 404.50583008 -242.47102539 404.33954102 -243.3137207 404.16821289 C-282.12875219 395.99981188 -318.34937021 375.90388664 -347.83520508 349.67211914 C-348.59027344 349.00962158 -348.59027344 349.00962158 -349.3605957 348.33374023 C-369.23155497 330.86693747 -384.49683637 310.45729346 -397.83520508 287.67211914 C-398.40319824 286.72151611 -398.40319824 286.72151611 -398.98266602 285.75170898 C-403.67816468 277.81059002 -405.38706973 271.34298177 -403.27270508 262.25415039 C-399.53876524 251.24979885 -390.77655581 241.83140159 -383.72070312 232.76733398 C-379.82153454 227.72755131 -376.15768171 222.53340968 -372.50317383 217.31469727 C-368.86983891 212.12751226 -365.1812346 206.98419488 -361.46020508 201.85961914 C-355.6288645 193.81657192 -349.92174839 185.69067083 -344.23754883 177.54321289 C-341.11977366 173.0745484 -337.98165604 168.62062223 -334.83520508 164.17211914 C-330.48398746 158.01789072 -326.15427227 151.84895104 -321.83520508 145.67211914 C-317.51613704 139.49528602 -313.18622243 133.32648999 -308.83520508 127.17211914 C-302.73436919 118.54129649 -296.67421956 109.88222806 -290.61743164 101.22045898 C-287.11165265 96.20767527 -283.60301637 91.19689087 -280.09448242 86.18603516 C-276.52042907 81.08117403 -272.94946668 75.9741717 -269.3815918 70.86499023 C-267.61818823 68.34426739 -265.84793163 65.82845788 -264.07739258 63.31274414 C-262.06625354 60.4504225 -260.09019992 57.57096641 -258.15551758 54.65649414 C-249.36019746 41.55524004 -237.85695889 31.47730746 -222.27270508 27.23461914 C-212.98778251 25.62567949 -204.62011637 27.40174689 -196.83520508 32.67211914 C-189.59720804 38.62167691 -184.04967155 46.25174313 -178.38891602 53.65209961 C-176.73154399 55.80689159 -175.05507831 57.94572244 -173.37426758 60.08227539 C-166.27716506 69.11486344 -159.41388461 78.25665201 -152.83520508 87.67211914 C-151.780768 89.17359712 -150.72606413 90.67488776 -149.67114258 92.17602539 C-147.2996793 95.55366714 -144.93463106 98.93569441 -142.57348633 102.32055664 C-140.12303546 105.83327508 -137.66150098 109.33777058 -135.19067383 112.83618164 C-134.57281006 113.71588623 -133.95494629 114.59559082 -133.31835938 115.50195312 C-132.02732844 117.33880444 -130.73051153 119.17160138 -129.42822266 121.00048828 C-125.64864067 126.37783317 -122.10658028 131.81281181 -118.74720764 137.45988464 C-116.81236317 140.70318597 -114.83424728 143.91924847 -112.85519409 147.13571167 C-111.89252615 148.72844042 -110.95112155 150.3342392 -110.03274536 151.95291138 C-105.4327541 160.72606422 -105.4327541 160.72606422 -97.79525757 166.4309082 C-93.44593274 167.25765687 -89.26318972 167.0829411 -84.8729248 166.73820496 C-68.37202929 166.20306015 -50.7090139 175.51730864 -38.92895508 186.48852539 C-25.77785253 200.20394764 -19.83668015 218.94964706 -19.76928711 237.68041992 C-20.15850022 249.44042211 -24.44009683 260.21369456 -32.39770508 268.85961914 C-41.66268087 277.43895156 -52.10103763 281.67982104 -63.83520508 285.67211914 C-60.70948036 288.82284042 -57.58027198 291.9700505 -54.44799805 295.11425781 C-53.38619647 296.18104211 -52.3252995 297.24872767 -51.26538086 298.31738281 C-45.86444163 303.76167236 -40.45200712 309.11890195 -34.61401367 314.10058594 C-31.02417299 317.272121 -27.77364113 320.80711623 -24.50512695 324.30493164 C-22.0730533 326.81621638 -20.41181227 328.46326284 -17.08520508 329.66821289 C-14.64065809 329.90430028 -14.64065809 329.90430028 -12.52270508 327.85961914 C-11.60874646 326.81266964 -10.71538283 325.74762401 -9.83520508 324.67211914 C-9.27188477 324.03532227 -8.70856445 323.39852539 -8.12817383 322.74243164 C26.50615936 281.97126141 39.42474702 223.39657781 35.41479492 171.17211914 C30.53025174 114.0834646 6.63297157 61.96278014 -32.83520508 20.67211914 C-33.47071289 19.99536133 -34.1062207 19.31860352 -34.76098633 18.62133789 C-70.89564971 -18.89316943 -124.1844774 -37.66299684 -174.83520508 -43.32788086 C-175.67825195 -43.42359375 -176.52129883 -43.51930664 -177.38989258 -43.61791992 C-187.43177944 -44.60721598 -197.50458059 -44.56670166 -207.58520508 -44.57788086 C-208.54543579 -44.58021729 -209.5056665 -44.58255371 -210.49499512 -44.58496094 C-228.08913188 -44.60103865 -245.37742359 -43.47489106 -262.83520508 -41.32788086 C-262.83520508 -41.98788086 -262.83520508 -42.64788086 -262.83520508 -43.32788086 C-177.28548116 -80.38628661 -68.75404679 -62.64588662 0 0 Z " fill="#FFFFFF" transform="translate(418.835205078125,61.327880859375)"/>
<path d="M0 0 C1.48536255 0.2616394 1.48536255 0.2616394 3.00073242 0.52856445 C24.75039047 4.55885809 45.83481812 11.82581719 62.875 26.3125 C64.17824219 27.37404297 64.17824219 27.37404297 65.5078125 28.45703125 C86.24973882 46.05912469 94.92713846 72.52547255 97.67871094 98.84643555 C100.11840957 129.49742547 94.51365791 160.90244507 74.0859375 184.8828125 C73.35632812 185.68460938 72.62671875 186.48640625 71.875 187.3125 C71.44348633 187.79170898 71.01197266 188.27091797 70.56738281 188.76464844 C60.35536282 199.97157643 49.11498469 206.90968228 34.875 212.3125 C33.20738715 212.97679633 31.54041531 213.64271341 29.875 214.3125 C30.57625 215.13492188 31.2775 215.95734375 32 216.8046875 C36.94938001 222.62294893 41.83993428 228.47081732 46.5859375 234.45703125 C49.62669702 238.25019714 52.7188872 241.99989379 55.8125 245.75 C56.42222656 246.48911621 57.03195312 247.22823242 57.66015625 247.98974609 C58.85446293 249.43736137 60.04879805 250.8849532 61.24316406 252.33251953 C65.48880512 257.48394816 69.7068724 262.65798636 73.9296875 267.828125 C79.17516367 274.24566727 84.44118578 280.64602925 89.71264648 287.04223633 C93.721669 291.90789223 97.71799142 296.78343767 101.69921875 301.671875 C103.33305699 303.65477383 104.98030603 305.62101898 106.64453125 307.578125 C107.3420752 308.40219849 107.3420752 308.40219849 108.05371094 309.24291992 C109.36666719 310.79145777 110.685133 312.33531929 112.00390625 313.87890625 C113.875 316.3125 113.875 316.3125 113.875 318.3125 C99.72369071 318.66393483 85.57306372 318.92690399 71.41827679 319.08968258 C64.84460883 319.16782982 58.27388028 319.27372732 51.7019043 319.4440918 C45.35386839 319.60761292 39.00865041 319.69686747 32.65867043 319.73565865 C30.24185631 319.76328313 27.82518925 319.81723595 25.40958214 319.89845085 C7.01823847 320.49194264 7.01823847 320.49194264 1.82269669 316.88948441 C-1.61303748 313.4770148 -3.929977 309.61569561 -6.07660484 305.30543804 C-7.84909247 301.93604246 -10.09716805 298.90092719 -12.3125 295.8125 C-13.23066721 294.47107793 -14.14764969 293.12884264 -15.0625 291.78515625 C-18.6147584 286.58514934 -22.21349341 281.41771535 -25.8125 276.25 C-26.81893555 274.80463867 -26.81893555 274.80463867 -27.84570312 273.33007812 C-29.22907804 271.34352552 -30.61254282 269.35703549 -31.99609375 267.37060547 C-34.17610791 264.23908512 -36.35398446 261.10608818 -38.53125 257.97265625 C-39.24837158 256.94084229 -39.96549316 255.90902832 -40.7043457 254.84594727 C-42.07298312 252.87659928 -43.44132714 250.90704735 -44.80932617 248.93725586 C-45.43299072 248.04014893 -46.05665527 247.14304199 -46.69921875 246.21875 C-47.24151123 245.43822266 -47.78380371 244.65769531 -48.3425293 243.85351562 C-48.93074463 243.01498047 -49.51895996 242.17644531 -50.125 241.3125 C-50.40154167 240.73558379 -50.67808334 240.15866758 -50.96300507 239.56426907 C-52.15214067 237.37850575 -53.22062325 235.92933907 -55.125 234.3125 C-59.18290405 233.24746057 -63.17537325 233.36956021 -67.35083008 233.42602539 C-68.59026367 233.41524963 -69.82969727 233.40447388 -71.10668945 233.39337158 C-74.49774574 233.37068442 -77.88608124 233.37885747 -81.27696443 233.40081334 C-84.82315249 233.41645946 -88.36907054 233.39257614 -91.91520691 233.37290955 C-98.62652603 233.3416831 -105.33733358 233.34593919 -112.04868478 233.36298412 C-121.12028966 233.38396906 -130.19167924 233.35006081 -139.26322842 233.31924725 C-153.55072482 233.27216203 -167.83712918 233.29834759 -182.125 233.3125 C-182.125 261.3625 -182.125 289.4125 -182.125 318.3125 C-209.845 318.3125 -237.565 318.3125 -266.125 318.3125 C-266.125 264.1925 -266.125 210.0725 -266.125 154.3125 C-249.274375 154.27511719 -232.42375 154.23773438 -215.0625 154.19921875 C-204.38020014 154.16893891 -193.69791108 154.13791213 -183.015625 154.10351562 C-177.40169341 154.08546789 -171.78776128 154.06760428 -166.17382812 154.05004883 C-165.11853511 154.0467373 -165.11853511 154.0467373 -164.04192305 154.04335886 C-152.7124163 154.00807462 -141.38290962 153.98316798 -130.05336845 153.96215298 C-118.40959881 153.94032193 -106.76590346 153.90698366 -95.12219334 153.86379844 C-88.58909001 153.8399273 -82.0560646 153.8211585 -75.5229187 153.81488609 C-69.36367593 153.80880761 -63.20463237 153.78870826 -57.04546356 153.75822449 C-54.79461809 153.74948842 -52.54374654 153.7457124 -50.29288483 153.74749184 C-27.18318962 153.87557585 -27.18318962 153.87557585 -5.5 146.625 C-4.83395752 146.27759766 -4.16791504 145.93019531 -3.48168945 145.57226562 C3.94023782 141.48832002 7.39792744 136.34448274 10.25317383 128.50683594 C11.29779812 124.8205057 11.36395473 121.24882509 11.3125 117.4375 C11.30492676 116.64883545 11.29735352 115.8601709 11.28955078 115.04760742 C11.11406018 108.8253769 10.14964611 103.70115815 6.875 98.3125 C6.50890625 97.6834375 6.1428125 97.054375 5.765625 96.40625 C-0.85388579 87.08990147 -13.2263884 83.77827792 -23.91238403 81.96694946 C-34.64512249 80.43080468 -45.60696513 80.75011684 -56.4267149 80.67652774 C-60.12493447 80.64838556 -63.82297019 80.6039601 -67.52105713 80.56227112 C-76.52299604 80.46477014 -85.52506874 80.39618242 -94.52729416 80.3314867 C-98.02651079 80.30591083 -101.52571177 80.27846205 -105.02491426 80.25103009 C-129.11388508 80.06260919 -153.20302991 79.92030899 -177.29240274 79.79508841 C-187.01796396 79.74442183 -196.7435034 79.69000881 -206.46904325 79.63541877 C-226.35434181 79.52387839 -246.23966125 79.41661192 -266.125 79.3125 C-261.74986503 71.61263902 -261.74986503 71.61263902 -259.53125 68.5078125 C-259.06460938 67.85103516 -258.59796875 67.19425781 -258.1171875 66.51757812 C-257.62476562 65.83115234 -257.13234375 65.14472656 -256.625 64.4375 C-255.55199849 62.92974788 -254.47908427 61.42193363 -253.40625 59.9140625 C-252.58833984 58.7679248 -252.58833984 58.7679248 -251.75390625 57.59863281 C-249.19842625 54.01207484 -246.66225627 50.41196072 -244.125 46.8125 C-243.12510237 45.39576108 -242.12510212 43.97909458 -241.125 42.5625 C-240.3825 41.510625 -240.3825 41.510625 -239.625 40.4375 C-235.125 34.0625 -235.125 34.0625 -233.62304688 31.93481445 C-232.62945491 30.52717187 -231.63596427 29.11945776 -230.64257812 27.71166992 C-228.0453886 24.03132267 -225.44611661 20.35247001 -222.84375 16.67578125 C-222.30492188 15.91394531 -221.76609375 15.15210937 -221.2109375 14.3671875 C-220.18555193 12.91750446 -219.15955218 11.46825556 -218.1328125 10.01953125 C-217.66617188 9.35953125 -217.19953125 8.69953125 -216.71875 8.01953125 C-216.11063477 7.16065308 -216.11063477 7.16065308 -215.49023438 6.28442383 C-213.98274542 4.18684642 -213.98274542 4.18684642 -212.47808647 1.23714352 C-210.125 -1.6875 -210.125 -1.6875 -206.94560432 -2.44419765 C-205.67998098 -2.44734006 -204.41435764 -2.45048246 -203.11038208 -2.45372009 C-202.05048138 -2.46859359 -202.05048138 -2.46859359 -200.96916854 -2.48376757 C-198.59997401 -2.50971367 -196.23301973 -2.49291392 -193.86376953 -2.47631836 C-192.16489017 -2.48612677 -190.4660242 -2.49855149 -188.7671814 -2.51339722 C-184.14604925 -2.54618653 -179.52560609 -2.54184044 -174.90439844 -2.53072429 C-170.05124223 -2.52506028 -165.19827047 -2.55247654 -160.34518433 -2.57606506 C-152.17555224 -2.61114482 -144.00612951 -2.62436473 -135.83642578 -2.62231445 C-124.38723297 -2.61948849 -112.93843072 -2.65651945 -101.48934007 -2.70142543 C-92.53718823 -2.73492834 -83.58500139 -2.75657905 -74.6328125 -2.77734375 C-73.68592638 -2.77972321 -72.73904027 -2.78210268 -71.76346064 -2.78455424 C-16.142845 -2.91912149 -16.142845 -2.91912149 0 0 Z " fill="#FFFFFF" transform="translate(2503.125,11.6875)"/>
<path d="M0 0 C102.3 0 204.6 0 310 0 C308.50391364 3.74021591 307.15892382 6.55953747 305.05078125 9.89453125 C304.16132813 11.30895508 304.16132813 11.30895508 303.25390625 12.75195312 C302.61324219 13.76193359 301.97257812 14.77191406 301.3125 15.8125 C299.9439033 17.98560963 298.57541674 20.15878862 297.20703125 22.33203125 C296.15636475 23.99613037 296.15636475 23.99613037 295.08447266 25.69384766 C291.87390872 30.78607731 288.68739327 35.89324807 285.5 41 C284.26577215 42.97535237 283.03139621 44.95061221 281.796875 46.92578125 C281.18005859 47.91271973 280.56324219 48.8996582 279.92773438 49.91650391 C277.8952994 53.16747322 275.86179815 56.41777385 273.828125 59.66796875 C273.14556641 60.75916016 272.46300781 61.85035156 271.75976562 62.97460938 C270.45154222 65.06598692 269.14296678 67.1571443 267.83398438 69.24804688 C267.24423828 70.19099609 266.65449219 71.13394531 266.046875 72.10546875 C265.52963867 72.93199951 265.01240234 73.75853027 264.47949219 74.61010742 C262.93890582 76.9762163 262.93890582 76.9762163 261.84530926 79.61178875 C260 82 260 82 256.89781666 82.61523914 C255.61007186 82.61063018 254.32232706 82.60602121 252.99555969 82.60127258 C251.91978229 82.60768077 251.91978229 82.60768077 250.822272 82.61421841 C248.41254159 82.62247237 246.00454141 82.59492675 243.5949707 82.56762695 C241.87041261 82.56621699 240.14585151 82.56700745 238.42129517 82.56983948 C233.73334416 82.57127706 229.04602975 82.54183213 224.35822701 82.50696969 C219.46152214 82.47576305 214.56480349 82.47277995 209.66801453 82.46684265 C200.39253148 82.45128744 191.11734226 82.41023629 181.84198874 82.3600952 C171.28351586 82.3042539 160.72502911 82.27672836 150.16644537 82.25161803 C128.44409636 82.19932181 106.72215028 82.10760916 85 82 C85 94.87 85 107.74 85 121 C153.97 121 222.94 121 294 121 C292.46975084 124.8256229 291.08976354 127.64986438 288.90234375 131.04296875 C288.27408691 132.02152832 287.64583008 133.00008789 286.99853516 134.00830078 C286.31839355 135.05743652 285.63825195 136.10657227 284.9375 137.1875 C283.87861572 138.83081299 283.87861572 138.83081299 282.79833984 140.50732422 C280.53974796 144.00977831 278.27114665 147.50567745 276 151 C275.4394693 151.86271515 275.4394693 151.86271515 274.86761475 152.74285889 C267.62789804 163.88176159 260.35590246 174.99990162 253 186.0625 C252.59668457 186.66980957 252.19336914 187.27711914 251.77783203 187.90283203 C249.12370847 191.87629153 249.12370847 191.87629153 248 193 C245.87373202 193.09690407 243.74418181 193.12186822 241.6157074 193.12025452 C240.94106683 193.12110894 240.26642627 193.12196337 239.57134205 193.12284368 C237.29419838 193.12450039 235.0171272 193.11897404 232.73999023 193.11352539 C231.11424766 193.11324353 229.48850495 193.11340122 227.86276245 193.1139679 C223.43526587 193.11425593 219.00779613 193.10835827 214.58030581 193.10139394 C209.95849158 193.09516136 205.3366768 193.09455668 200.71485901 193.09336853 C191.95651763 193.09025493 183.19818867 193.08204115 174.43985277 193.07201904 C164.47145987 193.0608588 154.50306639 193.05534768 144.5346688 193.05032361 C124.02310406 193.03985856 103.51155634 193.02151273 83 193 C83 207.52 83 222.04 83 237 C157.91 237 232.82 237 310 237 C307.75163546 242.62091135 307.75163546 242.62091135 305.890625 245.43359375 C305.47337158 246.07039062 305.05611816 246.7071875 304.6262207 247.36328125 C304.17206787 248.04777344 303.71791504 248.73226562 303.25 249.4375 C302.24784305 250.96688809 301.24658405 252.49686485 300.24609375 254.02734375 C299.71612793 254.83671387 299.18616211 255.64608398 298.64013672 256.47998047 C295.82976671 260.79802739 293.07270919 265.14978512 290.3125 269.5 C285.11838517 277.6758011 279.90949709 285.84197741 274.6875 294 C274.05432861 294.98935547 273.42115723 295.97871094 272.76879883 296.99804688 C271.54319859 298.91220265 270.29637742 300.81298812 269.0256567 302.6974926 C266.90649322 305.9556092 266.90649322 305.9556092 265.52023411 309.59866524 C263.70627436 313.75225048 261.71227209 317.28215649 258 320 C250.21828731 322.68337304 241.3950271 321.76445424 233.29467773 321.58935547 C230.7104093 321.58506479 228.12612446 321.5869391 225.54186344 321.59446907 C219.32972972 321.601893 213.12044427 321.53745785 206.90904132 321.44745047 C199.71992581 321.34640665 192.53179595 321.33551194 185.34191895 321.32446289 C166.37332972 321.25104176 147.40537171 321.05558443 128.4375 320.875 C86.053125 320.58625 43.66875 320.2975 0 320 C0 214.4 0 108.8 0 0 Z " fill="#FFFFFF" transform="translate(1900,10)"/>
<path d="M0 0 C9.15673136 7.30405937 15.83093793 15.1520702 21.4375 25.375 C25.91516969 33.37164792 30.51455069 41.27819702 35.25 49.125 C36.52748932 51.24600608 37.80483098 53.3671011 39.08203125 55.48828125 C39.7260791 56.55771973 40.37012695 57.6271582 41.03369141 58.72900391 C51.6011531 76.30820079 61.91842036 94.01675883 72.05961609 111.84358215 C75.51366434 117.91080389 79.00564027 123.95593792 82.5 130 C88.03253629 139.57366792 93.53030625 149.16669428 99.01025391 158.77050781 C103.8171789 167.19367294 108.64765707 175.60289286 113.5 184 C119.03230627 193.57380158 124.53030562 203.16669318 130.01025391 212.77050781 C134.8171789 221.19367294 139.64765707 229.60289286 144.5 238 C150.02861695 247.56741713 155.52354111 257.15358421 160.99917603 266.75137329 C166.64683705 276.64961594 172.33067261 286.52644617 178.04101562 296.38867188 C179.69934734 299.25608826 181.35175108 302.12677784 183 305 C183.50611816 305.87865723 184.01223633 306.75731445 184.53369141 307.66259766 C184.99308105 308.47132324 185.4524707 309.28004883 185.92578125 310.11328125 C186.52966675 311.17156128 186.52966675 311.17156128 187.14575195 312.2512207 C188 314 188 314 188 316 C85.04 316 -17.92 316 -124 316 C-117.25170068 303.62811791 -117.25170068 303.62811791 -114.29296875 298.78515625 C-113.63248535 297.70089355 -112.97200195 296.61663086 -112.29150391 295.49951172 C-111.59019901 294.35382294 -110.88886358 293.20815285 -110.1875 292.0625 C-109.44423124 290.84407587 -108.70123586 289.62548495 -107.95849609 288.40673828 C-106.41622738 285.87648842 -104.87279586 283.34695335 -103.32861328 280.81787109 C-101.04514578 277.07620098 -98.76935784 273.32990729 -96.49609375 269.58203125 C-96.12781967 268.97490799 -95.75954559 268.36778473 -95.38011169 267.74226379 C-94.29500235 265.95321959 -93.20999432 264.16411397 -92.125 262.375 C-88.22355754 255.94265764 -88.22355754 255.94265764 -86.23577881 252.83061218 C-84.56698281 250.11613171 -83.29377398 247.39603863 -82.08314514 244.45062256 C-79.47910797 238.61813847 -76.72705191 232.49150809 -70.48880768 229.99505997 C-62.88058492 228.42891573 -55.13942295 228.93667173 -47.42578125 229.2421875 C-44.9305289 229.27579655 -42.43515706 229.30140157 -39.93974304 229.31936646 C-33.39835666 229.38782124 -26.86426468 229.56434131 -20.32574463 229.76403809 C-13.64373544 229.95864564 -6.95944375 230.03051541 -0.27539062 230.12109375 C12.81950352 230.31364545 25.90936248 230.61697804 39 231 C36.87042154 227.26102918 34.7393174 223.52293297 32.60694885 219.78555298 C31.88562805 218.52084428 31.16468541 217.2559198 30.44416809 215.99075317 C25.36127013 207.06643205 20.19342281 198.19864318 14.9375 189.375 C9.05078896 179.48522984 3.24970955 169.55070574 -2.48754883 159.57348633 C-6.71575594 152.22117533 -10.97139174 144.88559297 -15.25 137.5625 C-21.19301282 127.39016037 -27.1057491 117.20066278 -33 107 C-35.86976458 109.55175183 -37.57071417 112.44610187 -39.484375 115.7578125 C-39.81644958 116.3288974 -40.14852417 116.8999823 -40.49066162 117.4883728 C-41.20661222 118.72050998 -41.9205116 119.95384088 -42.63256836 121.18823242 C-44.54231232 124.49826058 -46.46738354 127.79936492 -48.390625 131.1015625 C-48.78072754 131.77225769 -49.17083008 132.44295288 -49.57275391 133.13397217 C-53.15796963 139.29059757 -56.81896846 145.40021777 -60.5 151.5 C-67.76364796 163.55532814 -74.87645796 175.69619322 -81.98144531 187.84532166 C-86.77252426 196.03449203 -91.60677744 204.19813062 -96.43945312 212.36279297 C-99.12856553 216.90719099 -101.8140587 221.45372726 -104.5 226 C-105.58331689 227.83334305 -106.66665021 229.66667639 -107.75 231.5 C-108.28625 232.4075 -108.8225 233.315 -109.375 234.25 C-115.33333333 244.33333333 -121.29166667 254.41666667 -127.25 264.5 C-127.78665283 265.4082251 -128.32330566 266.3164502 -128.8762207 267.25219727 C-129.95533137 269.07829719 -131.03459473 270.90430689 -132.11401367 272.73022461 C-134.88823781 277.42348614 -137.65947384 282.11847346 -140.42578125 286.81640625 C-140.99296875 287.77869141 -141.56015625 288.74097656 -142.14453125 289.73242188 C-143.20934658 291.53911674 -144.27324297 293.34635374 -145.3359375 295.15429688 C-146.31259255 296.81053043 -147.3111482 298.45409731 -148.3339386 300.08224487 C-150.09248681 302.99202532 -150.09248681 302.99202532 -151.27824402 306.3175354 C-153.01500921 310.21388098 -154.54386445 313.40261682 -158 316 C-165.0028974 318.40858756 -172.93771709 317.50659156 -180.21875 317.26953125 C-182.4044446 317.24526565 -184.59021021 317.22676958 -186.77600098 317.21379089 C-192.51213952 317.16429744 -198.24395591 317.03674409 -203.97839355 316.89263916 C-209.83656334 316.75932818 -215.69543611 316.70021155 -221.5546875 316.63476562 C-233.03835114 316.49560055 -244.51881537 316.27391896 -256 316 C-254.90070469 313.7823868 -253.79933277 311.56584526 -252.69677734 309.34985352 C-252.38929062 308.72902138 -252.08180389 308.10818924 -251.76499939 307.46854401 C-248.94999882 301.81779149 -245.84766628 296.36562625 -242.625 290.9375 C-241.39712714 288.85156737 -240.16926295 286.76562964 -238.94140625 284.6796875 C-238.30090332 283.59526367 -237.66040039 282.51083984 -237.00048828 281.39355469 C-234.93813555 277.89505542 -232.88713268 274.39013639 -230.83984375 270.8828125 C-223.52488821 258.3572455 -216.14683584 245.87413755 -208.66210938 233.44897461 C-203.53995909 224.93252268 -198.50520487 216.3670074 -193.48840332 207.78829956 C-186.32521549 195.53947648 -179.09669481 183.33050346 -171.85498047 171.12792969 C-169.0022434 166.31754968 -166.15680805 161.5028674 -163.3125 156.6875 C-162.785354 155.79514648 -162.25820801 154.90279297 -161.71508789 153.98339844 C-160.14324639 151.32235155 -158.57158819 148.6611965 -157 146 C-150.34998287 134.73941508 -143.69514085 123.48173891 -137.02664185 112.23208618 C-136.00123054 110.50207608 -134.97603951 108.77193565 -133.95092773 107.04174805 C-130.80810711 101.73741103 -127.66405842 96.43382008 -124.515625 91.1328125 C-119.24855431 82.25450306 -114.03795972 73.35018253 -108.9375 64.375 C-97.44078364 44.18864123 -86.18333838 24.79449164 -70 8 C-68.96746094 6.87271484 -68.96746094 6.87271484 -67.9140625 5.72265625 C-49.68111568 -13.66380353 -21.65965733 -15.13163078 0 0 Z " fill="#FFFFFF" transform="translate(916,14)"/>
<path d="M0 0 C13.58432208 10.23714512 23.37527998 22.1520175 31.875 36.8125 C32.39304199 37.70356445 32.91108398 38.59462891 33.44482422 39.51269531 C36.94034309 45.53390081 40.41612774 51.56630418 43.88293457 57.6040802 C47.3711512 63.67883257 50.87283161 69.7457842 54.375 75.8125 C58.13876716 82.33475882 61.90144628 88.85763773 65.66015625 95.3828125 C71.70555159 105.87482094 77.76610219 116.35731676 83.875 126.8125 C91.89767511 140.54305188 99.83358259 154.32327966 107.77050781 168.10351562 C114.44456312 179.68931766 121.12964084 191.26803353 127.875 202.8125 C135.89767511 216.54305188 143.83358259 230.32327966 151.77050781 244.10351562 C158.44456669 255.68932387 165.13045202 267.26755523 171.875 278.8125 C173.59591724 281.76215018 175.31639795 284.71205435 177.03662109 287.66210938 C178.33255058 289.88291603 179.62969363 292.10298079 180.92822266 294.32226562 C182.6807652 297.31831178 184.42803023 300.31738495 186.17211914 303.31835938 C187.16667528 305.02672896 188.16629291 306.73214871 189.16601562 308.4375 C189.76736328 309.47390625 190.36871094 310.5103125 190.98828125 311.578125 C191.52235596 312.49368164 192.05643066 313.40923828 192.60668945 314.35253906 C193.875 316.8125 193.875 316.8125 194.875 320.8125 C92.905 320.8125 -9.065 320.8125 -114.125 320.8125 C-112.67377547 317.18443866 -111.24955815 314.07021216 -109.359375 310.69921875 C-108.80636719 309.71115234 -108.25335937 308.72308594 -107.68359375 307.70507812 C-106.78833984 306.11856445 -106.78833984 306.11856445 -105.875 304.5 C-105.25238281 303.39205078 -104.62976562 302.28410156 -103.98828125 301.14257812 C-99.21208421 292.67131516 -94.32911163 284.26498357 -89.40209961 275.88061523 C-84.3552105 267.26971151 -79.47754477 258.56987574 -74.65429688 249.83203125 C-74.10451172 248.84074219 -73.55472656 247.84945312 -72.98828125 246.828125 C-72.50657471 245.95446289 -72.02486816 245.08080078 -71.52856445 244.18066406 C-70.15183864 241.8577835 -68.93870429 239.81669671 -67.125 237.8125 C-64.97547626 237.30469131 -64.97547626 237.30469131 -62.43635559 237.29351807 C-61.47301804 237.27960526 -60.50968048 237.26569244 -59.51715088 237.25135803 C-57.93435333 237.25890358 -57.93435333 237.25890358 -56.31958008 237.26660156 C-55.20723495 237.25626389 -54.09488983 237.24592621 -52.94883728 237.23527527 C-49.26392297 237.20572477 -45.57955501 237.20434546 -41.89453125 237.203125 C-39.34290003 237.1881517 -36.79127853 237.17142636 -34.2396698 237.15301514 C-28.20485775 237.11371156 -22.1702322 237.09210915 -16.13532704 237.07904124 C-9.26467447 237.06317891 -2.3942061 237.02476666 4.4763397 236.98444796 C18.60916446 236.90201756 32.7419849 236.84794517 46.875 236.8125 C46.40518707 236.01124695 45.93537415 235.2099939 45.45132446 234.38446045 C43.272148 230.66781755 41.09306659 226.95111895 38.9140625 223.234375 C38.52267719 222.56678917 38.13129189 221.89920334 37.72804642 221.21138763 C33.48956388 213.98157698 29.25135683 206.75162004 25.0234375 199.515625 C17.895115 187.3218706 10.70530484 175.17130343 3.41113281 163.07568359 C-1.79869986 154.41159586 -6.85621574 145.66383488 -11.8894043 136.89624023 C-16.53631731 128.80749169 -21.27347536 120.78004454 -26.125 112.8125 C-30.71190393 119.44522135 -34.82953213 126.30544825 -38.86962891 133.28198242 C-45.00216786 143.86600999 -51.24682 154.37485549 -57.625 164.8125 C-63.39273453 174.25515712 -69.05260711 183.75328549 -74.625 193.3125 C-80.22112086 202.91132019 -85.90152625 212.45187448 -91.6875 221.9375 C-97.18143564 230.94616223 -102.62844626 239.98005606 -108 249.0625 C-108.648479 250.15892822 -109.29695801 251.25535645 -109.96508789 252.38500977 C-112.01923161 255.86034454 -114.07222863 259.33635457 -116.125 262.8125 C-118.89509101 267.5032134 -121.6675902 272.19248607 -124.44390869 276.8795166 C-125.20142031 278.15935148 -125.95812541 279.43966428 -126.71380615 280.72058105 C-127.06461243 281.31520142 -127.4154187 281.90982178 -127.77685547 282.52246094 C-128.13121674 283.12807861 -128.485578 283.73369629 -128.85067749 284.35766602 C-129.60777827 285.62054078 -130.38955507 286.86888999 -131.19302368 288.1027832 C-133.97266521 292.45277823 -135.82834726 296.66220113 -137.54101562 301.54003906 C-140.54368033 309.0475005 -143.84742846 316.65092281 -151.125 320.8125 C-165.34040161 325.65532982 -182.47425044 323.35694803 -197.18914795 322.59777832 C-202.93221338 322.3298713 -208.67824528 322.21266758 -214.42578125 322.08203125 C-225.66668875 321.80466495 -236.89433945 321.36214467 -248.125 320.8125 C-246.69393482 317.14770886 -245.08060496 313.81661954 -243.10546875 310.41015625 C-242.50234863 309.36690186 -241.89922852 308.32364746 -241.27783203 307.2487793 C-240.62927246 306.13543213 -239.98071289 305.02208496 -239.3125 303.875 C-238.63116681 302.70038158 -237.95001701 301.52565675 -237.26904297 300.35083008 C-232.08468129 291.41744842 -226.83785056 282.52125175 -221.5703125 273.63671875 C-217.56484113 266.87586881 -213.59558372 260.09386625 -209.625 253.3125 C-204.12868457 243.92685173 -198.61534521 234.55162408 -193.07373047 225.19262695 C-190.05960912 220.09821284 -187.05839128 214.99644937 -184.0703125 209.88671875 C-183.71902283 209.28606598 -183.36773315 208.68541321 -183.00579834 208.06655884 C-182.65068176 207.45936005 -182.29556519 206.85216125 -181.9296875 206.2265625 C-175.88307885 195.88811124 -169.80533697 185.57187584 -163.625 175.3125 C-158.25004935 166.38995338 -152.94595042 157.42895905 -147.6875 148.4375 C-140.25487533 135.72954719 -132.7686293 123.05438171 -125.25097656 110.39648438 C-123.38199032 107.24759439 -121.51816332 104.09567507 -119.65534973 100.94313049 C-62.04976786 3.45953503 -62.04976786 3.45953503 -34 -6.25 C-21.85456217 -9.14744105 -10.34038484 -6.94744606 0 0 Z " fill="#FFFFFF" transform="translate(2875.125,9.1875)"/>
<path d="M0 0 C12.60375551 -0.39467347 25.20603251 -0.69632119 37.81471825 -0.88080692 C43.67053462 -0.9693786 49.52211234 -1.0893707 55.37548828 -1.2824707 C61.02987487 -1.46782887 66.68020013 -1.56894628 72.3373909 -1.61291313 C74.49007786 -1.64421933 76.64255277 -1.70536986 78.79349899 -1.79741096 C95.21042297 -2.47167052 95.21042297 -2.47167052 99.87097549 1.6577549 C103.1050812 5.72100535 105.23612793 10.17325088 107.16041279 14.97198009 C108.28835292 17.69651544 109.74157983 20.18241455 111.2578125 22.70703125 C112.2148795 24.40810216 113.17059692 26.10993304 114.125 27.8125 C118.99081418 36.45478882 123.88849271 45.07823877 128.8125 53.6875 C129.4889329 54.87060512 130.16536519 56.05371059 130.84179688 57.23681641 C133.91388663 62.60904715 136.98823584 67.97997939 140.06489563 73.34959412 C141.75239031 76.29510888 143.43892475 79.24117253 145.125 82.1875 C145.45728607 82.76805145 145.78957214 83.34860291 146.13192749 83.94674683 C150.84615541 92.18693339 155.50341977 100.45750157 160.125 108.75 C165.22214598 117.89445571 170.44998746 126.95359092 175.75048828 135.98144531 C180.52408274 144.1323945 185.14276243 152.36380884 189.73461914 160.61816406 C194.44826853 169.06949441 199.31218696 177.42673077 204.21142578 185.77148438 C208.3072464 192.76463599 212.26352464 199.80798729 216 207 C220.12860428 202.23544934 223.20716604 196.88745542 226.4375 191.5 C227.6959149 189.41624395 228.9550446 187.33291945 230.21484375 185.25 C230.84890137 184.20070312 231.48295898 183.15140625 232.13623047 182.0703125 C234.89364098 177.5278453 237.69455388 173.01290239 240.5 168.5 C245.03899632 161.19005252 249.53384917 153.85467239 254 146.5 C258.9505162 138.34929462 263.94069212 130.22473556 268.96704102 122.12060547 C278.43807059 106.84897993 287.85723209 91.54555191 297.1875 76.1875 C302.07395714 68.14450546 307.00043423 60.12773424 311.96118164 52.13037109 C316.36325236 45.03308721 320.74776046 37.92512445 325.125 30.8125 C325.74552246 29.80469482 326.36604492 28.79688965 327.00537109 27.75854492 C327.62492676 26.75154541 328.24448242 25.7445459 328.8828125 24.70703125 C329.82531105 23.24064209 329.82531105 23.24064209 330.78684998 21.74462891 C332.44706909 19.06553529 333.75770733 16.35707229 335.01689148 13.46931458 C340.60642279 1.50069248 340.60642279 1.50069248 346.27441406 -1.00578117 C352.94112904 -2.54625209 359.72869778 -2.06591383 366.51171875 -1.7578125 C368.69307401 -1.72419456 370.8745662 -1.6985937 373.05610657 -1.68063354 C378.76942254 -1.61224062 384.4743597 -1.43580137 390.18438721 -1.23596191 C396.02216198 -1.05104904 401.86130619 -0.96945727 407.70117188 -0.87890625 C419.13777569 -0.68646762 430.56818857 -0.3797321 442 0 C440.52306824 3.79340589 438.82370266 7.19650264 436.75390625 10.70703125 C436.09132813 11.83439697 435.42875 12.9617627 434.74609375 14.12329102 C434.01836619 15.35310844 433.29049742 16.58284231 432.5625 17.8125 C431.80185467 19.10264841 431.04144276 20.39293448 430.28125 21.68334961 C428.26686198 25.10011895 426.2475753 28.51396713 424.22686768 31.92700195 C423.02108918 33.9643663 421.81670612 36.00254856 420.61279297 38.04101562 C411.90075128 52.7899014 403.11610068 67.48989298 394.19049072 82.11053467 C388.48258246 91.46869938 382.96247837 100.92541158 377.51367188 110.43652344 C372.74359329 118.75016094 367.85051322 126.98286515 362.90136719 135.19091797 C358.1771756 143.02761845 353.49974011 150.89082063 348.83764648 158.76452637 C342.37615431 169.67699408 335.85934458 180.55144727 329.25 191.375 C323.18455498 201.30939487 317.29972055 211.33674173 311.51367188 221.43652344 C306.74980179 229.7393403 301.8662183 237.96329601 296.91894531 246.15795898 C293.29601274 252.16214633 289.70504508 258.18290937 286.1484375 264.2265625 C285.30637672 265.65482149 284.46425428 267.08304412 283.62207031 268.51123047 C282.39213007 270.59717243 281.16367578 272.68389715 279.9407959 274.77398682 C268.12697046 294.96222477 256.02450843 315.5388366 232.09838867 322.55786133 C217.56746714 325.61958313 199.28377656 323.30914494 186.24609375 316.4765625 C171.88811913 307.03775484 164.15023084 289.75784304 155.86181641 275.25585938 C153.38110393 270.91770286 150.88217059 266.59016631 148.38330078 262.26245117 C147.12401508 260.08098438 145.86588353 257.89885094 144.60888672 255.71606445 C140.98986335 249.43312885 137.34629126 243.16543126 133.6796875 236.91015625 C127.74868255 226.79021282 121.95409067 216.60456715 116.24975586 206.35522461 C112.25035279 199.18620951 108.1564633 192.07897656 104 185 C98.62803207 175.85086711 93.40923475 166.62596869 88.25 157.35546875 C84.25035548 150.18646305 80.15651956 143.07907237 76 136 C70.62720551 126.84945939 65.4072756 117.62331625 60.24780273 108.35107422 C56.27184217 101.22371467 52.19825872 94.16067046 48.0625 87.125 C42.38020194 77.45200119 36.89591624 67.6797981 31.46728516 57.86254883 C27.66474816 50.98880802 23.83531923 44.13270232 19.9375 37.3125 C19.46779785 36.48999756 18.9980957 35.66749512 18.51416016 34.82006836 C15.75987242 30.01617586 12.96462797 25.2382231 10.14453125 20.47265625 C9.49685791 19.3746167 8.84918457 18.27657715 8.18188477 17.14526367 C6.91612889 15.00261235 5.64468159 12.86331069 4.36694336 10.7277832 C3.7972583 9.76316162 3.22757324 8.79854004 2.640625 7.8046875 C2.13047852 6.94858887 1.62033203 6.09249023 1.09472656 5.21044922 C0 3 0 3 0 0 Z " fill="#FFFFFF" transform="translate(1430,10)"/>
<path d="M0 0 C13.85555832 -0.42212058 27.71010896 -0.73746594 41.57079601 -0.93261909 C48.00837796 -1.0263215 54.44162348 -1.15323147 60.87670898 -1.35791016 C67.09521338 -1.55444746 73.30956753 -1.66129675 79.5309391 -1.70779037 C81.89607417 -1.74088818 84.26099763 -1.80553543 86.62434959 -1.90314102 C104.65176628 -2.61761029 104.65176628 -2.61761029 110.26161766 1.76810646 C114.2454097 6.02660413 117.16105472 10.77638483 119.87164783 15.91622066 C121.29653468 18.54762411 123.00588782 20.88619399 124.83984375 23.24609375 C125.35748291 23.94742432 125.87512207 24.64875488 126.40844727 25.37133789 C126.91303467 26.05317139 127.41762207 26.73500488 127.9375 27.4375 C128.79589478 28.60043579 128.79589478 28.60043579 129.67163086 29.78686523 C131.44687876 32.19189135 133.22326766 34.59607037 135 37 C142.42059673 47.0401124 149.81196039 57.09797508 157.10571289 67.23071289 C161.0339888 72.68106937 165.00712036 78.09683174 169 83.5 C173.5375138 89.64016768 178.0393073 95.803801 182.5 102 C187.16661956 108.47363237 191.84878702 114.93555528 196.5625 121.375 C197.14644531 122.17808594 197.73039062 122.98117188 198.33203125 123.80859375 C201.01759113 127.46672788 203.63538561 130.92331105 207 134 C215.56489728 122.21970939 223.98590537 110.34789834 232.31982422 98.40332031 C234.91005766 94.69825521 237.51615377 91.00447372 240.125 87.3125 C240.61234619 86.622771 241.09969238 85.93304199 241.60180664 85.22241211 C242.57850604 83.84041899 243.55531218 82.45850131 244.53222656 81.07666016 C247.02320986 77.55232484 249.51144903 74.02605299 252 70.5 C252.99998722 69.08332432 253.99998722 67.66665764 255 66.25 C255.7425 65.198125 255.7425 65.198125 256.5 64.125 C258 62 259.5 59.875 261 57.75 C261.74237915 56.69824585 261.74237915 56.69824585 262.49975586 55.62524414 C263.50044188 54.20767346 264.50125583 52.79019308 265.50219727 51.37280273 C267.99275451 47.84569428 270.48111592 44.31707783 272.96484375 40.78515625 C278.71082961 32.61990732 284.50518571 24.4927235 290.37280273 16.41430664 C290.87497314 15.72199951 291.37714355 15.02969238 291.89453125 14.31640625 C292.39233597 13.66836029 292.89014069 13.02031433 293.4030304 12.35263062 C295.08574223 10.05971763 295.08574223 10.05971763 296.01068115 7.42530823 C297.60325563 3.98349631 298.9272235 2.27466874 302 0 C309.52960271 -1.94741065 317.7336028 -1.15764696 325.43359375 -0.9765625 C327.7552638 -0.95790167 330.07697333 -0.94367158 332.3986969 -0.9336853 C338.49727905 -0.89557855 344.59346361 -0.79741548 350.69110107 -0.68664551 C356.9180864 -0.58418294 363.14546079 -0.53864129 369.37304688 -0.48828125 C381.58308231 -0.38116679 393.79134147 -0.21058879 406 0 C404.62514593 2.81047932 403.16639749 5.29057247 401.3046875 7.80859375 C400.76199219 8.54464844 400.21929688 9.28070313 399.66015625 10.0390625 C399.07105469 10.83054687 398.48195313 11.62203125 397.875 12.4375 C397.25753906 13.27152344 396.64007812 14.10554688 396.00390625 14.96484375 C390.72136103 22.07881246 385.34941831 29.12342138 379.96435547 36.15991211 C375.58134751 41.89604575 371.26562959 47.67614956 367 53.5 C361.4133758 61.12740017 355.70723662 68.65644565 349.9609375 76.1640625 C345.57935674 81.89902727 341.26457042 87.67759563 337 93.5 C331.4133758 101.12740017 325.70723662 108.65644565 319.9609375 116.1640625 C315.57935674 121.89902727 311.26457042 127.67759563 307 133.5 C301.4133758 141.12740017 295.70723662 148.65644565 289.9609375 156.1640625 C284.99986103 162.6575178 280.13649225 169.21658485 275.30883789 175.80957031 C270.10122289 182.90363623 264.77278613 189.90284928 259.41601562 196.88476562 C258.78244141 197.71169922 258.14886719 198.53863281 257.49609375 199.390625 C256.94107178 200.11282227 256.3860498 200.83501953 255.81420898 201.57910156 C255.21552002 202.37799805 254.61683105 203.17689453 254 204 C253.15118256 204.98216995 252.30236511 205.9643399 251.42782593 206.97627258 C248.0985338 211.68225598 248.2919504 216.19665052 248.34057617 221.80053711 C248.33009247 222.86469849 248.31960876 223.92885986 248.30880737 225.02526855 C248.28011396 228.52625895 248.28634266 232.02625709 248.29296875 235.52734375 C248.27985036 237.96115861 248.26454571 240.39496259 248.24714661 242.82875061 C248.20730092 249.22219589 248.19710634 255.61535633 248.19311523 262.00891113 C248.18214125 269.68664606 248.13428917 277.36422927 248.09262848 285.04184723 C248.03352105 296.69469265 248.0212193 308.34674655 248 320 C220.28 320 192.56 320 164 320 C164.06574219 308.53185547 164.06574219 308.53185547 164.1328125 296.83203125 C164.13830775 291.96926659 164.14084664 287.1068559 164.1328125 282.24414062 C164.12035767 274.53676754 164.11845401 266.8304636 164.18164062 259.12329102 C164.23193585 252.90467883 164.23302714 246.68777441 164.20095444 240.4690609 C164.19722236 238.10455313 164.21079407 235.73994858 164.24249649 233.37565041 C164.49035389 215.81821221 164.49035389 215.81821221 155.49185181 201.41525269 C154.66954071 200.6182193 153.84722961 199.82118591 153 199 C151.79222489 197.49536593 150.60374347 195.97456191 149.453125 194.42578125 C148.38576515 193.05441619 147.31805571 191.68332317 146.25 190.3125 C145.66637695 189.56266846 145.08275391 188.81283691 144.48144531 188.0402832 C142.65464521 185.6932507 140.82738712 183.34657547 139 181 C131.84607715 171.81353937 124.70067657 162.62163273 117.609375 153.38671875 C112.70605374 147.01278359 107.7551514 140.67553266 102.81445312 134.33056641 C99.87486662 130.55482734 96.93752285 126.77734465 94 123 C92.83334461 121.49999123 91.66667793 119.99999124 90.5 118.5 C78.83333333 103.5 67.16666667 88.5 55.5 73.5 C54.92217773 72.75709717 54.34435547 72.01419434 53.74902344 71.2487793 C52.58556688 69.75288338 51.42215522 68.25695255 50.25878906 66.76098633 C47.29338002 62.94790224 44.32712738 59.13547936 41.359375 55.32421875 C35.42928556 47.7071211 29.51539773 40.07873291 23.63671875 32.421875 C19.24706429 26.71549587 14.81737042 21.04003895 10.39453125 15.359375 C9.84490723 14.65103516 9.2952832 13.94269531 8.72900391 13.21289062 C7.50127278 11.64156121 6.26282617 10.07857809 5.01708984 8.52148438 C4.37594238 7.71517578 3.73479492 6.90886719 3.07421875 6.078125 C2.48600342 5.3449707 1.89778809 4.61181641 1.29174805 3.85644531 C0 2 0 2 0 0 Z " fill="#FFFFFF" transform="translate(1015,10)"/>
<path d="M0 0 C10.43478155 9.37150211 20.21723444 19.17763714 28.84765625 30.25 C29.4715625 31.04148437 30.09546875 31.83296875 30.73828125 32.6484375 C34.84765625 37.96758178 34.84765625 37.96758178 34.84765625 40.25 C31.6531993 38.85286388 29.65830813 37.22467102 27.28515625 34.6875 C22.96815792 30.27562259 18.36211909 26.38537028 13.515625 22.56738281 C12.34462125 21.64250924 11.17834895 20.71162861 10.015625 19.77636719 C-26.40155228 -9.47049412 -70.67256967 -28.26112072 -117.77734375 -28.0625 C-118.47033569 -28.06067719 -119.16332764 -28.05885437 -119.87731934 -28.05697632 C-175.40666567 -27.81267266 -228.47231595 -2.69829138 -269.15234375 34.25 C-269.94640625 34.96027344 -270.74046875 35.67054687 -271.55859375 36.40234375 C-283.5296589 47.70112082 -292.71723358 61.66396924 -300.15234375 76.25 C-300.49604004 76.9090332 -300.83973633 77.56806641 -301.19384766 78.24707031 C-308.91604271 93.16964152 -314.09755803 109.05273064 -317.46484375 125.5 C-317.61211914 126.21776611 -317.75939453 126.93553223 -317.91113281 127.67504883 C-320.09747658 139.29160015 -321.47054164 150.90773912 -320.890625 162.72265625 C-319.45805358 192.54434071 -319.45805358 192.54434071 -326.65234375 200.8125 C-328.42773637 202.68252015 -330.25066334 204.46674346 -332.13623047 206.22558594 C-336.1297212 210.23551875 -339.34845888 214.90210234 -342.71484375 219.4375 C-344.04834471 221.18185742 -345.38291726 222.92539636 -346.71875 224.66796875 C-348.75499163 227.34309552 -350.69149102 230.02483899 -352.4921875 232.86328125 C-353.04003906 233.65089844 -353.58789062 234.43851562 -354.15234375 235.25 C-354.81234375 235.25 -355.47234375 235.25 -356.15234375 235.25 C-359.57363888 223.68791567 -362.5130691 212.2141524 -364.15234375 200.25 C-364.29591309 199.21008911 -364.29591309 199.21008911 -364.44238281 198.14916992 C-365.45137595 189.65500275 -365.39602729 181.10417015 -365.40234375 172.5625 C-365.40301849 171.74119598 -365.40369324 170.91989197 -365.40438843 170.07369995 C-365.38684879 156.59424319 -364.66765246 143.52215998 -362.15234375 130.25 C-361.99668945 129.39116211 -361.84103516 128.53232422 -361.68066406 127.64746094 C-350.79535983 69.26659772 -318.4303412 13.34242319 -269.15234375 -20.75 C-198.4331368 -68.98915312 -98.17331355 -68.30102654 0 0 Z " fill="#FFFFFF" transform="translate(365.15234375,84.75)"/>
<path d="M0 0 C3.32642099 1.27245953 6.42398944 2.70318674 9.53515625 4.43359375 C44.85157242 23.70387557 83.11630067 35.26563587 123 40 C124.10730469 40.13277344 125.21460938 40.26554687 126.35546875 40.40234375 C159.67430845 43.61538906 194.55910203 39.44705893 226 28 C226.7847168 27.71817871 227.56943359 27.43635742 228.37792969 27.14599609 C246.03476886 20.71208548 263.71571306 12.55536395 278.79296875 1.23046875 C281 0 281 0 282.953125 -0.01171875 C285.95876633 1.47389404 288.18139361 3.68932452 290.5625 6 C294.56219959 9.78811456 298.62141706 13.37951804 302.9375 16.8125 C306.82844196 19.93874817 310.02481465 22.99888867 313 27 C305.57403896 33.03359335 297.40214921 37.49224208 289 42 C288.35498535 42.34853027 287.7099707 42.69706055 287.04541016 43.05615234 C230.10517426 73.55201462 162.97858977 78.80418956 101.46875 60.37109375 C89.2125315 56.54390232 77.53856898 51.61060311 66 46 C65.21415527 45.62004883 64.42831055 45.24009766 63.61865234 44.84863281 C42.50063819 34.51493705 23.30955387 20.86125851 5.27734375 5.84765625 C2.94002243 3.8925113 2.94002243 3.8925113 0 2 C0 1.34 0 0.68 0 0 Z " fill="#FFFFFF" transform="translate(77,442)"/>
<path d="M0 0 C5.28 0 10.56 0 16 0 C19.68009986 3.88349052 21.57222367 6.45333541 24 11 C25.26777622 12.94028834 26.55162659 14.87017167 27.8515625 16.7890625 C29.11239829 18.73241684 30.37021182 20.67773535 31.625 22.625 C32.88758758 24.57580131 34.15060278 26.52632593 35.4140625 28.4765625 C35.9601416 29.32299316 36.5062207 30.16942383 37.06884766 31.04150391 C39.68335465 35.04688896 42.34677228 39.02015843 45 43 C45.33 28.81 45.66 14.62 46 0 C51.61 0 57.22 0 63 0 C63 26.4 63 52.8 63 80 C47 80 47 80 43.27514648 77.14526367 C42.01255798 75.2507782 42.01255798 75.2507782 40.87109375 73.16796875 C40.42202164 72.46158768 39.97294952 71.7552066 39.51026917 71.02742004 C38.09651977 68.77684853 36.76815035 66.48796691 35.4375 64.1875 C34.51505338 62.68749057 33.58734751 61.19070212 32.65429688 59.69726562 C30.92295981 56.90925847 29.2246736 54.10652026 27.56030273 51.27807617 C24.47522812 46.12314507 21.22532169 41.06836265 18 36 C17.67 50.52 17.34 65.04 17 80 C11.39 80 5.78 80 0 80 C0 53.6 0 27.2 0 0 Z " fill="#FFFFFF" transform="translate(2324,429)"/>
<path d="M0 0 C5.28 0 10.56 0 16 0 C19.68009986 3.88349052 21.57222367 6.45333541 24 11 C25.26777622 12.94028834 26.55162659 14.87017167 27.8515625 16.7890625 C29.11239829 18.73241684 30.37021182 20.67773535 31.625 22.625 C32.88758758 24.57580131 34.15060278 26.52632593 35.4140625 28.4765625 C35.9601416 29.32299316 36.5062207 30.16942383 37.06884766 31.04150391 C39.68335465 35.04688896 42.34677228 39.02015843 45 43 C45.33 28.81 45.66 14.62 46 0 C51.61 0 57.22 0 63 0 C63 26.4 63 52.8 63 80 C47 80 47 80 43.27514648 77.14526367 C42.01255798 75.2507782 42.01255798 75.2507782 40.87109375 73.16796875 C40.42202164 72.46158768 39.97294952 71.7552066 39.51026917 71.02742004 C38.09651977 68.77684853 36.76815035 66.48796691 35.4375 64.1875 C34.51505338 62.68749057 33.58734751 61.19070212 32.65429688 59.69726562 C30.92295981 56.90925847 29.2246736 54.10652026 27.56030273 51.27807617 C24.47522812 46.12314507 21.22532169 41.06836265 18 36 C17.67 50.52 17.34 65.04 17 80 C11.39 80 5.78 80 0 80 C0 53.6 0 27.2 0 0 Z " fill="#FFFFFF" transform="translate(1486,429)"/>
<path d="M0 0 C5.28 0 10.56 0 16 0 C19.68009986 3.88349052 21.57222367 6.45333541 24 11 C25.26777622 12.94028834 26.55162659 14.87017167 27.8515625 16.7890625 C29.11239829 18.73241684 30.37021182 20.67773535 31.625 22.625 C32.88758758 24.57580131 34.15060278 26.52632593 35.4140625 28.4765625 C35.9601416 29.32299316 36.5062207 30.16942383 37.06884766 31.04150391 C39.68335465 35.04688896 42.34677228 39.02015843 45 43 C45.33 28.81 45.66 14.62 46 0 C51.61 0 57.22 0 63 0 C63 26.4 63 52.8 63 80 C47 80 47 80 43.27514648 77.14526367 C42.01255798 75.2507782 42.01255798 75.2507782 40.87109375 73.16796875 C40.42202164 72.46158768 39.97294952 71.7552066 39.51026917 71.02742004 C38.09651977 68.77684853 36.76815035 66.48796691 35.4375 64.1875 C34.51505338 62.68749057 33.58734751 61.19070212 32.65429688 59.69726562 C30.92295981 56.90925847 29.2246736 54.10652026 27.56030273 51.27807617 C24.47522812 46.12314507 21.22532169 41.06836265 18 36 C17.67 50.52 17.34 65.04 17 80 C11.39 80 5.78 80 0 80 C0 53.6 0 27.2 0 0 Z " fill="#FFFFFF" transform="translate(978,429)"/>
<path d="M0 0 C1.25671509 0.0146228 1.25671509 0.0146228 2.53881836 0.02954102 C13.02993079 0.33033586 19.71517316 3.53769593 27.35546875 10.79296875 C37.83540154 23.00452555 37.60317902 37.20741668 36.625 52.4375 C34.77665926 63.46073695 28.71913004 71.52718687 19.91015625 78.1484375 C13.4573636 81.78847438 7.62340526 82.96934987 0.25 82.875 C-0.58635986 82.86670166 -1.42271973 82.85840332 -2.28442383 82.84985352 C-11.79874946 82.58965639 -18.59736656 80.01355572 -25.55859375 73.41796875 C-34.09216586 64.11362238 -36.94337292 54.58369025 -36.8125 42.125 C-36.80420166 41.10970215 -36.79590332 40.0944043 -36.78735352 39.04833984 C-36.51983812 27.17674918 -33.79223484 18.07759442 -25.375 9.4375 C-17.80485671 2.51969371 -10.18470077 -0.13234879 0 0 Z M-15.078125 24.42578125 C-19.89272757 31.89421596 -19.35169099 41.89882322 -18.375 50.4375 C-16.4875208 57.12063449 -13.08726587 61.58792952 -7.375 65.4375 C-2.2078841 67.15987197 2.73099758 67.09311622 7.875 65.3125 C13.60432818 61.40613988 17.28561988 56.28894448 18.625 49.4375 C19.53900709 38.72578275 18.70483804 30.69325167 12.75 21.5625 C8.96342446 17.77592446 5.42861015 16.2675135 0.125 16.0625 C-6.82563312 16.35356504 -10.66653492 19.33822172 -15.078125 24.42578125 Z " fill="#FFFFFF" transform="translate(1746.375,427.5625)"/>
<path d="M0 0 C1.25671509 0.0146228 1.25671509 0.0146228 2.53881836 0.02954102 C13.02993079 0.33033586 19.71517316 3.53769593 27.35546875 10.79296875 C37.83540154 23.00452555 37.60317902 37.20741668 36.625 52.4375 C34.77665926 63.46073695 28.71913004 71.52718687 19.91015625 78.1484375 C13.4573636 81.78847438 7.62340526 82.96934987 0.25 82.875 C-0.58635986 82.86670166 -1.42271973 82.85840332 -2.28442383 82.84985352 C-11.79874946 82.58965639 -18.59736656 80.01355572 -25.55859375 73.41796875 C-34.09216586 64.11362238 -36.94337292 54.58369025 -36.8125 42.125 C-36.80420166 41.10970215 -36.79590332 40.0944043 -36.78735352 39.04833984 C-36.51983812 27.17674918 -33.79223484 18.07759442 -25.375 9.4375 C-17.80485671 2.51969371 -10.18470077 -0.13234879 0 0 Z M-15.078125 24.42578125 C-19.89272757 31.89421596 -19.35169099 41.89882322 -18.375 50.4375 C-16.4875208 57.12063449 -13.08726587 61.58792952 -7.375 65.4375 C-2.2078841 67.15987197 2.73099758 67.09311622 7.875 65.3125 C13.60432818 61.40613988 17.28561988 56.28894448 18.625 49.4375 C19.53900709 38.72578275 18.70483804 30.69325167 12.75 21.5625 C8.96342446 17.77592446 5.42861015 16.2675135 0.125 16.0625 C-6.82563312 16.35356504 -10.66653492 19.33822172 -15.078125 24.42578125 Z " fill="#FFFFFF" transform="translate(1598.375,427.5625)"/>
<path d="M0 0 C43.09411765 0 43.09411765 0 51 6 C58.29188448 13.61741504 59.40567218 21.039292 59.25390625 31.359375 C58.78721943 38.05094603 56.74574946 43.11865769 52 48 C50.04148656 49.39355764 48.04872887 50.74282547 46 52 C49.44198193 59.37308761 53.48494935 66.33279603 57.69677734 73.28491211 C58.12297363 73.99526611 58.54916992 74.70562012 58.98828125 75.4375 C59.37540283 76.07558594 59.76252441 76.71367187 60.16137695 77.37109375 C61 79 61 79 61 81 C54.4352554 82.05590142 47.43756456 83.06095628 41 81 C36.42947662 77.18604309 34.18341936 71.55313301 31.9453125 66.16357422 C31.01145849 64.0262255 29.9391575 62.07103059 28.75 60.06640625 C27 57 27 57 27 55 C23.7 55 20.4 55 17 55 C17 63.58 17 72.16 17 81 C11.39 81 5.78 81 0 81 C0 54.27 0 27.54 0 0 Z M17 16 C17 23.92 17 31.84 17 40 C19.536875 40.061875 22.07375 40.12375 24.6875 40.1875 C25.87218872 40.22846802 25.87218872 40.22846802 27.08081055 40.27026367 C31.62873502 40.32374161 34.43897489 39.85523635 38 37 C40.768691 34.08590728 41.43134422 32.0575992 41.4375 28.0625 C41.31747355 24.66675162 41.03753552 23.0720682 39.4375 20 C32.89902355 14.63509625 25.0383111 15.83426163 17 16 Z " fill="#FFFFFF" transform="translate(2030,428)"/>
<path d="M0 0 C-0.60110283 4.00735217 -2.66602028 6.55469371 -5.0625 9.75 C-6.16271484 11.22726562 -6.16271484 11.22726562 -7.28515625 12.734375 C-7.85105469 13.48203125 -8.41695312 14.2296875 -9 15 C-11.02254931 13.99099787 -13.04076321 12.97864413 -15.04296875 11.9296875 C-20.45375287 9.26864613 -24.97757674 8.07785201 -31 9 C-37.39110665 11.21230615 -40.65061169 15.44580071 -43.75 21.3125 C-46.68772423 29.97878647 -46.60508347 38.53509102 -43.1484375 47.11328125 C-40.54772565 52.05040496 -37.28781463 55.23739512 -32 57 C-29.85662235 57.12016328 -27.70920876 57.17531664 -25.5625 57.1875 C-24.42941406 57.20167969 -23.29632812 57.21585937 -22.12890625 57.23046875 C-18.19740373 57.00726568 -18.19740373 57.00726568 -15 55 C-14.29327794 51.89069059 -14.29327794 51.89069059 -14.25 48.375 C-14.1675 46.27125 -14.085 44.1675 -14 42 C-18.95 42 -23.9 42 -29 42 C-29 37.05 -29 32.1 -29 27 C-18.77 27 -8.54 27 2 27 C2.18401652 32.32370024 2.3430586 37.63634185 2.43945312 42.96069336 C2.47962739 44.76999314 2.53418125 46.57903408 2.60351562 48.38745117 C2.70085601 50.99202211 2.74597932 53.59315792 2.78125 56.19921875 C2.82254028 57.00461594 2.86383057 57.81001312 2.90637207 58.63981628 C2.90825675 61.0115778 2.82037516 62.77083618 2 65 C-0.42062817 67.22917095 -3.03343142 68.61498093 -6 70 C-6.81984375 70.44988281 -7.6396875 70.89976562 -8.484375 71.36328125 C-18.45205532 75.53939559 -32.332057 76.10222842 -42.625 72.5625 C-52.79819063 67.40400935 -58.89486413 59.46733905 -63 49 C-66.07450024 38.65998457 -65.78187318 22.97479284 -61.2578125 13.21484375 C-60.84273437 12.48394531 -60.42765625 11.75304687 -60 11 C-59.56429687 10.19691406 -59.12859375 9.39382813 -58.6796875 8.56640625 C-53.3702501 -0.26814943 -45.76678025 -5.06996593 -36 -8 C-23.48154061 -10.78187986 -10.04130474 -8.11850171 0 0 Z " fill="#FFFFFF" transform="translate(730,436)"/>
<path d="M0 0 C5.61 0 11.22 0 17 0 C17.495 15.345 17.495 15.345 18 31 C19.753125 28.669375 21.50625 26.33875 23.3125 23.9375 C23.9098999 23.1633374 24.5072998 22.3891748 25.12280273 21.59155273 C27.85017569 18.03909933 30.33418258 14.53722948 32.47265625 10.59765625 C37.11392187 2.44737309 37.11392187 2.44737309 41 0 C48.19461101 -1.75285914 55.72827276 -0.93819426 63 0 C59.49518803 5.43542873 55.88487998 10.57183592 51.625 15.4375 C50.67398103 16.55165833 49.72346527 17.66624637 48.7734375 18.78125 C47.02530135 20.81932685 45.25902635 22.83502913 43.4765625 24.84375 C42.37441406 26.12765625 42.37441406 26.12765625 41.25 27.4375 C40.59515625 28.17871094 39.9403125 28.91992188 39.265625 29.68359375 C37.79636504 31.95282031 37.79636504 31.95282031 37.93359375 34.68359375 C39.47950611 39.49121131 42.08128982 43.40201788 44.8125 47.625 C45.99084201 49.48618287 47.16789132 51.34818471 48.34375 53.2109375 C48.94703125 54.16194336 49.5503125 55.11294922 50.171875 56.09277344 C53.11542657 60.77383809 55.96844369 65.50803572 58.8125 70.25 C59.33368408 71.11318848 59.85486816 71.97637695 60.3918457 72.86572266 C60.86710693 73.65769043 61.34236816 74.4496582 61.83203125 75.265625 C62.25202393 75.96461914 62.6720166 76.66361328 63.10473633 77.38378906 C64 79 64 79 64 80 C46.4241364 82.52261912 46.4241364 82.52261912 41.15283203 78.63916016 C37.98191999 74.93302057 35.99384249 70.60647306 34.02197266 66.17724609 C32.43734547 62.80130121 30.40777978 59.74390214 28.375 56.625 C25 51.24901186 25 51.24901186 25 49 C24.21625 49.78375 23.4325 50.5675 22.625 51.375 C21.08333333 52.91666667 19.54166667 54.45833333 18 56 C17.62864085 58.52037964 17.62864085 58.52037964 17.5859375 61.4453125 C17.54726562 62.52167969 17.50859375 63.59804688 17.46875 64.70703125 C17.4378125 65.83496094 17.406875 66.96289062 17.375 68.125 C17.33632812 69.26066406 17.29765625 70.39632812 17.2578125 71.56640625 C17.16332767 74.37732987 17.08056679 77.18864304 17 80 C11.39 80 5.78 80 0 80 C0 53.6 0 27.2 0 0 Z " fill="#FFFFFF" transform="translate(1409,429)"/>
<path d="M0 0 C5.61 0 11.22 0 17 0 C17.495 15.345 17.495 15.345 18 31 C19.753125 28.669375 21.50625 26.33875 23.3125 23.9375 C23.9098999 23.1633374 24.5072998 22.3891748 25.12280273 21.59155273 C27.85017569 18.03909933 30.33418258 14.53722948 32.47265625 10.59765625 C37.11392187 2.44737309 37.11392187 2.44737309 41 0 C48.19461101 -1.75285914 55.72827276 -0.93819426 63 0 C59.49518803 5.43542873 55.88487998 10.57183592 51.625 15.4375 C50.67398103 16.55165833 49.72346527 17.66624637 48.7734375 18.78125 C47.02530135 20.81932685 45.25902635 22.83502913 43.4765625 24.84375 C42.37441406 26.12765625 42.37441406 26.12765625 41.25 27.4375 C40.59515625 28.17871094 39.9403125 28.91992188 39.265625 29.68359375 C37.79636504 31.95282031 37.79636504 31.95282031 37.93359375 34.68359375 C39.47950611 39.49121131 42.08128982 43.40201788 44.8125 47.625 C45.99084201 49.48618287 47.16789132 51.34818471 48.34375 53.2109375 C48.94703125 54.16194336 49.5503125 55.11294922 50.171875 56.09277344 C53.11542657 60.77383809 55.96844369 65.50803572 58.8125 70.25 C59.33368408 71.11318848 59.85486816 71.97637695 60.3918457 72.86572266 C60.86710693 73.65769043 61.34236816 74.4496582 61.83203125 75.265625 C62.25202393 75.96461914 62.6720166 76.66361328 63.10473633 77.38378906 C64 79 64 79 64 80 C46.4241364 82.52261912 46.4241364 82.52261912 41.15283203 78.63916016 C37.98191999 74.93302057 35.99384249 70.60647306 34.02197266 66.17724609 C32.43734547 62.80130121 30.40777978 59.74390214 28.375 56.625 C25 51.24901186 25 51.24901186 25 49 C24.21625 49.78375 23.4325 50.5675 22.625 51.375 C21.08333333 52.91666667 19.54166667 54.45833333 18 56 C17.62864085 58.52037964 17.62864085 58.52037964 17.5859375 61.4453125 C17.54726562 62.52167969 17.50859375 63.59804688 17.46875 64.70703125 C17.4378125 65.83496094 17.406875 66.96289062 17.375 68.125 C17.33632812 69.26066406 17.29765625 70.39632812 17.2578125 71.56640625 C17.16332767 74.37732987 17.08056679 77.18864304 17 80 C11.39 80 5.78 80 0 80 C0 53.6 0 27.2 0 0 Z " fill="#FFFFFF" transform="translate(1164,429)"/>
<path d="M0 0 C0.40605469 0.44214844 0.81210938 0.88429688 1.23046875 1.33984375 C-0.11882589 5.17647447 -1.8470415 7.99156944 -4.39453125 11.15234375 C-5.02617187 11.94253906 -5.6578125 12.73273438 -6.30859375 13.546875 C-6.79070313 14.13855469 -7.2728125 14.73023438 -7.76953125 15.33984375 C-8.56617187 14.91832031 -9.3628125 14.49679687 -10.18359375 14.0625 C-11.24320313 13.51464844 -12.3028125 12.96679688 -13.39453125 12.40234375 C-14.43867188 11.85707031 -15.4828125 11.31179688 -16.55859375 10.75 C-20.37945425 9.07198219 -23.74681366 7.80617472 -27.88671875 8.8984375 C-28.46679688 9.18847656 -29.046875 9.47851562 -29.64453125 9.77734375 C-30.67578125 10.29296875 -31.70703125 10.80859375 -32.76953125 11.33984375 C-33.18762326 14.17136348 -33.18762326 14.17136348 -32.76953125 17.33984375 C-28.22288308 21.86841379 -22.36128196 23.84292534 -16.5390625 26.25195312 C-8.95662256 29.48245485 -2.95857534 32.92845805 1.23046875 40.33984375 C3.4302728 46.93925591 3.57086769 56.55416804 0.60546875 62.96484375 C-2.78036459 68.46086195 -7.82115061 71.93517923 -13.76953125 74.33984375 C-16.64453125 74.52734375 -16.64453125 74.52734375 -18.76953125 74.33984375 C-18.88167969 75.02433594 -18.99382813 75.70882812 -19.109375 76.4140625 C-19.87724518 79.8172268 -21.05367073 82.90727473 -22.33203125 86.15234375 C-22.78707031 87.31378906 -23.24210937 88.47523438 -23.7109375 89.671875 C-24.06027344 90.55230469 -24.40960937 91.43273437 -24.76953125 92.33984375 C-28.431256 91.71306204 -31.65143075 90.69532529 -35.08203125 89.27734375 C-35.96503906 88.91511719 -36.84804687 88.55289063 -37.7578125 88.1796875 C-38.42167969 87.90253906 -39.08554688 87.62539063 -39.76953125 87.33984375 C-38.51314134 83.98751365 -37.08219237 81.0358176 -35.14453125 78.02734375 C-34.69851562 77.32996094 -34.2525 76.63257813 -33.79296875 75.9140625 C-33.45523438 75.39457031 -33.1175 74.87507813 -32.76953125 74.33984375 C-33.71828125 74.27796875 -34.66703125 74.21609375 -35.64453125 74.15234375 C-42.77691499 73.13757371 -49.48261149 69.09807153 -54.76953125 64.33984375 C-54.187804 60.38779195 -52.21795384 58.11889322 -49.70703125 55.08984375 C-48.97355469 54.1978125 -48.24007812 53.30578125 -47.484375 52.38671875 C-46.91847656 51.71125 -46.35257813 51.03578125 -45.76953125 50.33984375 C-42.45539768 51.58336682 -39.57361314 53.02208121 -36.58203125 54.90234375 C-31.78003387 57.60396832 -27.28953562 58.70591734 -21.76953125 58.33984375 C-19.21294719 57.19198968 -17.71069929 56.28101179 -15.76953125 54.33984375 C-15.26817926 51.96762419 -15.26817926 51.96762419 -15.76953125 49.33984375 C-19.78572038 45.41890021 -24.42246212 43.62161893 -29.51953125 41.52734375 C-47.00697397 34.04075745 -47.00697397 34.04075745 -50.76953125 25.33984375 C-52.79182975 18.62292374 -52.7586147 10.6591062 -49.94140625 4.1875 C-45.41651151 -2.9467507 -38.23800757 -6.64103007 -30.20703125 -8.47265625 C-19.88145881 -9.41499005 -7.77103664 -7.29070766 0 0 Z " fill="#FFFFFF" transform="translate(3058.76953125,435.66015625)"/>
<path d="M0 0 C17.16 0 34.32 0 52 0 C52 5.28 52 10.56 52 16 C40.45 16 28.9 16 17 16 C17 21.61 17 27.22 17 33 C27.23 33 37.46 33 48 33 C48 37.95 48 42.9 48 48 C37.77 48 27.54 48 17 48 C17 53.94 17 59.88 17 66 C28.88 66 40.76 66 53 66 C53 71.28 53 76.56 53 82 C35.51 82 18.02 82 0 82 C0 54.94 0 27.88 0 0 Z " fill="#FFFFFF" transform="translate(2550,428)"/>
<path d="M0 0 C17.16 0 34.32 0 52 0 C52 5.28 52 10.56 52 16 C40.45 16 28.9 16 17 16 C17 21.61 17 27.22 17 33 C27.23 33 37.46 33 48 33 C48 37.95 48 42.9 48 48 C37.77 48 27.54 48 17 48 C17 53.94 17 59.88 17 66 C28.88 66 40.76 66 53 66 C53 71.28 53 76.56 53 82 C35.51 82 18.02 82 0 82 C0 54.94 0 27.88 0 0 Z " fill="#FFFFFF" transform="translate(1961,428)"/>
<path d="M0 0 C17.16 0 34.32 0 52 0 C52 5.28 52 10.56 52 16 C40.45 16 28.9 16 17 16 C17 21.61 17 27.22 17 33 C27.23 33 37.46 33 48 33 C48 37.95 48 42.9 48 48 C37.77 48 27.54 48 17 48 C17 53.94 17 59.88 17 66 C28.88 66 40.76 66 53 66 C53 71.28 53 76.56 53 82 C35.51 82 18.02 82 0 82 C0 54.94 0 27.88 0 0 Z " fill="#FFFFFF" transform="translate(1339,428)"/>
<path d="M0 0 C17.16 0 34.32 0 52 0 C52 5.28 52 10.56 52 16 C40.45 16 28.9 16 17 16 C17 21.61 17 27.22 17 33 C27.23 33 37.46 33 48 33 C48 37.95 48 42.9 48 48 C37.77 48 27.54 48 17 48 C17 53.94 17 59.88 17 66 C28.88 66 40.76 66 53 66 C53 71.28 53 76.56 53 82 C35.51 82 18.02 82 0 82 C0 54.94 0 27.88 0 0 Z " fill="#FFFFFF" transform="translate(908,428)"/>
<path d="M0 0 C5.61 0 11.22 0 17 0 C17.01981934 1.50304687 17.03963867 3.00609375 17.06005859 4.5546875 C17.13636962 10.15332239 17.22504757 15.75170601 17.31738281 21.35009766 C17.35556737 23.76899235 17.39043826 26.18794179 17.421875 28.60693359 C17.46775422 32.09232086 17.52571129 35.57733466 17.5859375 39.0625 C17.59748871 40.13677246 17.60903992 41.21104492 17.62094116 42.31787109 C17.66903772 52.52346566 17.66903772 52.52346566 22 61.4375 C26.12436402 64.65965939 29.92566095 64.46610047 35 64 C38.65162085 62.65048795 39.69049473 61.54910397 41.60083008 58.15991211 C43.77894454 52.80921999 43.47994529 47.19761584 43.51171875 41.50390625 C43.52966995 40.31522446 43.54762115 39.12654266 43.56611633 37.90184021 C43.6201027 34.12209573 43.65407867 30.34247672 43.6875 26.5625 C43.72068325 23.99282113 43.75517384 21.42315879 43.79101562 18.85351562 C43.87582299 12.56910109 43.94269057 6.28472302 44 0 C49.61 0 55.22 0 61 0 C61.09079435 7.5198678 61.16399828 15.03952786 61.20724869 22.55981255 C61.22801927 26.05277947 61.25614006 29.54534814 61.30175781 33.03808594 C61.35400946 37.06448939 61.37303198 41.09048227 61.390625 45.1171875 C61.41127014 46.35612762 61.43191528 47.59506775 61.45318604 48.87155151 C61.45572074 58.77521548 59.59717417 67.10603855 52.71484375 74.53125 C44.14492865 81.87131396 33.88058402 81.60303428 23.21630859 81.18359375 C18.8646372 80.82311161 15.5571338 79.45515158 12 77 C10.39125 75.948125 10.39125 75.948125 8.75 74.875 C2.66078982 68.50900754 -0.13244224 60.9234316 -0.11352539 52.22167969 C-0.11344986 51.0607782 -0.11337433 49.89987671 -0.11329651 48.70379639 C-0.10813522 47.45576233 -0.10297394 46.20772827 -0.09765625 44.921875 C-0.0962413 43.64016418 -0.09482635 42.35845337 -0.09336853 41.03790283 C-0.08955901 37.6381636 -0.07974214 34.2384674 -0.06866455 30.83874512 C-0.05841674 27.366461 -0.0538637 23.8941699 -0.04882812 20.421875 C-0.03811841 13.61456392 -0.02053433 6.80728846 0 0 Z " fill="#FFFFFF" transform="translate(749,429)"/>
<path d="M0 0 C5.94 0 11.88 0 18 0 C18.45737549 1.29695801 18.91475098 2.59391602 19.38598633 3.93017578 C21.52586771 9.9959268 23.66873531 16.06062047 25.8125 22.125 C26.19727509 23.21379456 26.58205017 24.30258911 26.97848511 25.42437744 C32.19777205 40.18569123 37.47126746 54.92330664 42.95043945 69.59033203 C43.3599585 70.69231934 43.76947754 71.79430664 44.19140625 72.9296875 C44.54404541 73.87054199 44.89668457 74.81139648 45.26000977 75.78076172 C46 78 46 78 46 80 C39.73 80 33.46 80 27 80 C26.175 77.56625 25.35 75.1325 24.5 72.625 C24.23896484 71.86010254 23.97792969 71.09520508 23.70898438 70.30712891 C22 65.22222222 22 65.22222222 22 63 C13.09 63 4.18 63 -5 63 C-5.99 66.63 -6.98 70.26 -8 74 C-8.66 75.98 -9.32 77.96 -10 80 C-15.94 80 -21.88 80 -28 80 C-26.61393092 73.04915324 -24.57721488 66.57396305 -22.1484375 59.921875 C-21.58184921 58.35098114 -21.58184921 58.35098114 -21.0038147 56.74835205 C-20.20450161 54.53540377 -19.40256127 52.32340288 -18.59814453 50.11230469 C-17.3944399 46.80343838 -16.19841226 43.49188413 -15.00390625 40.1796875 C-10.14293053 26.73186793 -5.138718 13.34406179 0 0 Z M8 24 C6.82599412 27.43503772 5.66206791 30.87340714 4.5 34.3125 C4.16613281 35.28896484 3.83226563 36.26542969 3.48828125 37.27148438 C3.17246094 38.20927734 2.85664063 39.14707031 2.53125 40.11328125 C2.23798828 40.97735596 1.94472656 41.84143066 1.64257812 42.73168945 C0.86372028 45.08814103 0.86372028 45.08814103 1 48 C5.95 48 10.9 48 16 48 C14.40554307 39.73781407 11.73981931 31.93711014 9 24 C8.67 24 8.34 24 8 24 Z " fill="#FFFFFF" transform="translate(2915,429)"/>
<path d="M0 0 C5.94 0 11.88 0 18 0 C18.45737549 1.29695801 18.91475098 2.59391602 19.38598633 3.93017578 C21.52586771 9.9959268 23.66873531 16.06062047 25.8125 22.125 C26.19727509 23.21379456 26.58205017 24.30258911 26.97848511 25.42437744 C32.19777205 40.18569123 37.47126746 54.92330664 42.95043945 69.59033203 C43.3599585 70.69231934 43.76947754 71.79430664 44.19140625 72.9296875 C44.54404541 73.87054199 44.89668457 74.81139648 45.26000977 75.78076172 C46 78 46 78 46 80 C39.73 80 33.46 80 27 80 C26.175 77.56625 25.35 75.1325 24.5 72.625 C24.23896484 71.86010254 23.97792969 71.09520508 23.70898438 70.30712891 C22 65.22222222 22 65.22222222 22 63 C13.09 63 4.18 63 -5 63 C-5.99 66.63 -6.98 70.26 -8 74 C-8.66 75.98 -9.32 77.96 -10 80 C-15.94 80 -21.88 80 -28 80 C-26.61393092 73.04915324 -24.57721488 66.57396305 -22.1484375 59.921875 C-21.58184921 58.35098114 -21.58184921 58.35098114 -21.0038147 56.74835205 C-20.20450161 54.53540377 -19.40256127 52.32340288 -18.59814453 50.11230469 C-17.3944399 46.80343838 -16.19841226 43.49188413 -15.00390625 40.1796875 C-10.14293053 26.73186793 -5.138718 13.34406179 0 0 Z M8 24 C6.82599412 27.43503772 5.66206791 30.87340714 4.5 34.3125 C4.16613281 35.28896484 3.83226563 36.26542969 3.48828125 37.27148438 C3.17246094 38.20927734 2.85664063 39.14707031 2.53125 40.11328125 C2.23798828 40.97735596 1.94472656 41.84143066 1.64257812 42.73168945 C0.86372028 45.08814103 0.86372028 45.08814103 1 48 C5.95 48 10.9 48 16 48 C14.40554307 39.73781407 11.73981931 31.93711014 9 24 C8.67 24 8.34 24 8 24 Z " fill="#FFFFFF" transform="translate(2264,429)"/>
<path d="M0 0 C0.40605469 0.44214844 0.81210938 0.88429688 1.23046875 1.33984375 C-0.11882589 5.17647447 -1.8470415 7.99156944 -4.39453125 11.15234375 C-5.02617187 11.94253906 -5.6578125 12.73273438 -6.30859375 13.546875 C-6.79070313 14.13855469 -7.2728125 14.73023438 -7.76953125 15.33984375 C-8.56617187 14.91832031 -9.3628125 14.49679687 -10.18359375 14.0625 C-11.24320313 13.51464844 -12.3028125 12.96679688 -13.39453125 12.40234375 C-14.43867188 11.85707031 -15.4828125 11.31179688 -16.55859375 10.75 C-20.37945425 9.07198219 -23.74681366 7.80617472 -27.88671875 8.8984375 C-28.46679688 9.18847656 -29.046875 9.47851562 -29.64453125 9.77734375 C-30.67578125 10.29296875 -31.70703125 10.80859375 -32.76953125 11.33984375 C-33.18762326 14.17136348 -33.18762326 14.17136348 -32.76953125 17.33984375 C-28.79350139 21.30009571 -24.04751791 23.10766037 -18.95703125 25.21484375 C-2.18440971 32.44986191 -2.18440971 32.44986191 1.609375 39.953125 C2.51043835 43.41570176 2.62281084 46.84535157 2.66796875 50.40234375 C2.67828125 51.08731934 2.68859375 51.77229492 2.69921875 52.47802734 C2.59293005 58.59110384 0.86226821 62.54068024 -3.20703125 67.02734375 C-10.04167192 73.19519021 -16.59547135 75.20065112 -25.76953125 75.33984375 C-36.68777167 74.72338099 -47.1946233 71.57421427 -54.76953125 63.33984375 C-53.24940448 57.93494856 -49.49567907 54.35491747 -45.76953125 50.33984375 C-42.67716755 50.94605602 -40.69275894 51.95021028 -38.14453125 53.77734375 C-33.11017779 56.99295499 -27.64189193 58.95717661 -21.61328125 57.99609375 C-19.42474646 57.33614928 -19.42474646 57.33614928 -16.76953125 55.33984375 C-15.35810373 52.45533295 -15.35810373 52.45533295 -15.76953125 49.33984375 C-19.62127028 44.07186642 -26.33904664 42.28611332 -32.15234375 39.87109375 C-39.51378035 36.70987623 -47.33748799 33.01146987 -50.76953125 25.33984375 C-52.79990246 18.62953891 -52.75608658 10.65329868 -49.94140625 4.1875 C-45.41651151 -2.9467507 -38.23800757 -6.64103007 -30.20703125 -8.47265625 C-19.88145881 -9.41499005 -7.77103664 -7.29070766 0 0 Z " fill="#FFFFFF" transform="translate(2224.76953125,435.66015625)"/>
<path d="M0 0 C6.27 0 12.54 0 19 0 C21.14167199 6.77930321 23.27777521 13.56032583 25.40869141 20.34301758 C26.13469328 22.65111884 26.86222615 24.95873911 27.59130859 27.26586914 C28.63780231 30.57834212 29.67881394 33.89249457 30.71875 37.20703125 C31.04685669 38.2414888 31.37496338 39.27594635 31.7130127 40.3417511 C32.01332397 41.3025206 32.31363525 42.2632901 32.62304688 43.25317383 C33.02275696 44.52225334 33.02275696 44.52225334 33.43054199 45.81697083 C34 48 34 48 34 51 C34.66 51 35.32 51 36 51 C36.16367569 50.09025925 36.16367569 50.09025925 36.33065796 49.16213989 C37.49969004 42.96691732 39.09592756 37.04790665 41.0390625 31.0546875 C41.32478119 30.15879913 41.61049988 29.26291077 41.90487671 28.33987427 C42.80654201 25.51660595 43.71562702 22.6957939 44.625 19.875 C45.24268263 17.94547093 45.85987462 16.01578473 46.4765625 14.0859375 C47.97781377 9.38847384 49.4891052 4.694414 51 0 C57.27 0 63.54 0 70 0 C67.63382541 9.11594693 64.73641353 18.00264485 61.7109375 26.9140625 C61.20175885 28.42045571 60.69278004 29.92691649 60.18399048 31.43344116 C59.12539225 34.56554862 58.06451906 37.69687316 57.00195312 40.82763672 C55.63805513 44.84681239 54.27980305 48.86786995 52.92317772 52.88950539 C51.87705343 55.98876845 50.82809518 59.08706636 49.77824783 62.18507004 C49.27580579 63.6688064 48.77423384 65.15283769 48.2735405 66.63716507 C47.57764803 68.69871348 46.87798005 70.75894074 46.17724609 72.81884766 C45.77992279 73.99146149 45.38259949 75.16407532 44.97323608 76.3722229 C44 79 44 79 43 80 C40.13732433 80.07325168 37.299281 80.09238205 34.4375 80.0625 C33.63119141 80.05798828 32.82488281 80.05347656 31.99414062 80.04882812 C29.99606244 80.03700518 27.99802217 80.01906914 26 80 C23.20030576 71.73241391 20.40092115 63.46472307 17.60191727 55.19690323 C16.30181714 51.35664175 15.00161573 47.51641463 13.70117188 43.67626953 C12.44303754 39.96104944 11.18518357 36.24573452 9.92751312 32.53035736 C9.45085103 31.12237002 8.97409279 29.71441522 8.49723053 28.30649567 C7.3998476 25.06641651 6.3040318 21.82584308 5.21154785 18.58410645 C4.41042893 16.21416665 3.60251211 13.8465128 2.78747559 11.48132324 C2.42029419 10.40692993 2.05311279 9.33253662 1.67480469 8.22558594 C1.35050476 7.28551697 1.02620483 6.345448 0.69207764 5.37689209 C0 3 0 3 0 0 Z " fill="#FFFFFF" transform="translate(2466,429)"/>
<path d="M0 0 C6.27 0 12.54 0 19 0 C21.14167199 6.77930321 23.27777521 13.56032583 25.40869141 20.34301758 C26.13469328 22.65111884 26.86222615 24.95873911 27.59130859 27.26586914 C28.63780231 30.57834212 29.67881394 33.89249457 30.71875 37.20703125 C31.04685669 38.2414888 31.37496338 39.27594635 31.7130127 40.3417511 C32.01332397 41.3025206 32.31363525 42.2632901 32.62304688 43.25317383 C33.02275696 44.52225334 33.02275696 44.52225334 33.43054199 45.81697083 C34 48 34 48 34 51 C34.66 51 35.32 51 36 51 C36.16367569 50.09025925 36.16367569 50.09025925 36.33065796 49.16213989 C37.49969004 42.96691732 39.09592756 37.04790665 41.0390625 31.0546875 C41.32478119 30.15879913 41.61049988 29.26291077 41.90487671 28.33987427 C42.80654201 25.51660595 43.71562702 22.6957939 44.625 19.875 C45.24268263 17.94547093 45.85987462 16.01578473 46.4765625 14.0859375 C47.97781377 9.38847384 49.4891052 4.694414 51 0 C57.27 0 63.54 0 70 0 C67.63382541 9.11594693 64.73641353 18.00264485 61.7109375 26.9140625 C61.20175885 28.42045571 60.69278004 29.92691649 60.18399048 31.43344116 C59.12539225 34.56554862 58.06451906 37.69687316 57.00195312 40.82763672 C55.63805513 44.84681239 54.27980305 48.86786995 52.92317772 52.88950539 C51.87705343 55.98876845 50.82809518 59.08706636 49.77824783 62.18507004 C49.27580579 63.6688064 48.77423384 65.15283769 48.2735405 66.63716507 C47.57764803 68.69871348 46.87798005 70.75894074 46.17724609 72.81884766 C45.77992279 73.99146149 45.38259949 75.16407532 44.97323608 76.3722229 C44 79 44 79 43 80 C40.13732433 80.07325168 37.299281 80.09238205 34.4375 80.0625 C33.63119141 80.05798828 32.82488281 80.05347656 31.99414062 80.04882812 C29.99606244 80.03700518 27.99802217 80.01906914 26 80 C23.20030576 71.73241391 20.40092115 63.46472307 17.60191727 55.19690323 C16.30181714 51.35664175 15.00161573 47.51641463 13.70117188 43.67626953 C12.44303754 39.96104944 11.18518357 36.24573452 9.92751312 32.53035736 C9.45085103 31.12237002 8.97409279 29.71441522 8.49723053 28.30649567 C7.3998476 25.06641651 6.3040318 21.82584308 5.21154785 18.58410645 C4.41042893 16.21416665 3.60251211 13.8465128 2.78747559 11.48132324 C2.42029419 10.40692993 2.05311279 9.33253662 1.67480469 8.22558594 C1.35050476 7.28551697 1.02620483 6.345448 0.69207764 5.37689209 C0 3 0 3 0 0 Z " fill="#FFFFFF" transform="translate(824,429)"/>
<path d="M0 0 C-3.15422267 4.82596069 -6.28919117 9.57557408 -10 14 C-12.54171204 12.82690214 -14.72883744 11.5091503 -17.0625 9.9375 C-21.61620988 6.93398923 -25.64675627 6.45042745 -31 7 C-36.15644045 8.81992016 -38.86733271 11.56205468 -42 16 C-45.41037278 24.12506358 -45.50073728 34.82803763 -43.0546875 43.2578125 C-40.8709556 47.85875706 -38.43654184 51.31472468 -34 54 C-28.47882667 55.84039111 -23.87603089 55.69560903 -18.6875 53.1875 C-16.57709515 52.07022684 -15.10009004 51.10617146 -13.45703125 49.36328125 C-12 48 -12 48 -9 48 C-6.73828125 50.40625 -6.73828125 50.40625 -4.3125 53.5 C-3.10013672 55.03140625 -3.10013672 55.03140625 -1.86328125 56.59375 C-1.24839844 57.3878125 -0.63351563 58.181875 0 59 C-2.35589117 64.74093479 -7.6685423 67.32460541 -13.01953125 70.015625 C-22.06089684 73.77211905 -31.66468314 73.68482728 -41 71 C-50.71544841 66.70330873 -57.1333171 59.84246557 -61 50 C-65.16531499 38.29816184 -64.99587172 21.8161162 -60.26171875 10.37109375 C-55.25854133 0.96883774 -48.53901091 -5.61014666 -38.46875 -9.25 C-24.42765986 -13.51564764 -10.51172402 -10.05469254 0 0 Z " fill="#FFFFFF" transform="translate(2812,438)"/>
<path d="M0 0 C19.14 0 38.28 0 58 0 C58 5.28 58 10.56 58 16 C51.07 16 44.14 16 37 16 C37 37.12 37 58.24 37 80 C31.39 80 25.78 80 20 80 C20 58.88 20 37.76 20 16 C13.4 16 6.8 16 0 16 C0 10.72 0 5.44 0 0 Z " fill="#FFFFFF" transform="translate(2645,429)"/>
<path d="M0 0 C19.14 0 38.28 0 58 0 C58 5.28 58 10.56 58 16 C51.07 16 44.14 16 37 16 C37 37.12 37 58.24 37 80 C31.39 80 25.78 80 20 80 C20 58.88 20 37.76 20 16 C13.4 16 6.8 16 0 16 C0 10.72 0 5.44 0 0 Z " fill="#FFFFFF" transform="translate(1266,429)"/>
<path d="M0 0 C5.61 0 11.22 0 17 0 C17 21.12 17 42.24 17 64 C27.56 64 38.12 64 49 64 C49 69.61 49 75.22 49 81 C32.83 81 16.66 81 0 81 C0 54.27 0 27.54 0 0 Z " fill="#FFFFFF" transform="translate(1896,429)"/>
<path d="M0 0 C5.61 0 11.22 0 17 0 C17 21.12 17 42.24 17 64 C27.56 64 38.12 64 49 64 C49 69.61 49 75.22 49 81 C32.83 81 16.66 81 0 81 C0 54.27 0 27.54 0 0 Z " fill="#FFFFFF" transform="translate(1653,429)"/>
<path d="M0 0 C5.61 0 11.22 0 17 0 C17 21.12 17 42.24 17 64 C27.56 64 38.12 64 49 64 C49 69.61 49 75.22 49 81 C32.83 81 16.66 81 0 81 C0 54.27 0 27.54 0 0 Z " fill="#FFFFFF" transform="translate(1061,429)"/>
<path d="M0 0 C5.61 0 11.22 0 17 0 C17.06797409 8.07601927 17.12292972 16.15181339 17.15543652 24.2280426 C17.17104388 27.97879732 17.19219093 31.72934492 17.22631836 35.47998047 C17.25908923 39.10451269 17.27689003 42.7288466 17.28463173 46.35351562 C17.29014364 47.73131427 17.30090661 49.10910296 17.31719017 50.48681641 C17.42210159 59.73714548 17.02589726 66.37215713 11.875 74.25 C5.16025211 80.67280233 -1.68068692 81.60811934 -10.67944336 81.54736328 C-18.34521987 81.23308768 -23.8760955 78.7520111 -29.625 73.6875 C-30.07875 73.130625 -30.5325 72.57375 -31 72 C-29.47987323 66.59510481 -25.72614782 63.01507372 -22 59 C-19.00645774 59.61027149 -17.71500412 60.20445356 -15.125 62.0625 C-11.62110011 64.23491793 -10.03624263 64.70195524 -6 64 C-3.07958222 61.94781453 -2.14970672 60.70631474 -1.40736389 57.20394897 C-1.02881272 54.22661433 -0.84395714 51.3608201 -0.79467773 48.36181641 C-0.77473251 47.28114899 -0.75478729 46.20048157 -0.73423767 45.08706665 C-0.70916893 43.3617421 -0.70916893 43.3617421 -0.68359375 41.6015625 C-0.66281265 40.41146576 -0.64203156 39.22136902 -0.62062073 37.99520874 C-0.55539905 34.20519615 -0.49636766 30.41511609 -0.4375 26.625 C-0.39428874 24.05077436 -0.35067362 21.47655547 -0.30664062 18.90234375 C-0.19974572 12.6016311 -0.09840136 6.30085079 0 0 Z " fill="#FFFFFF" transform="translate(1821,429)"/>
<path d="M0 0 C5.61 0 11.22 0 17 0 C17 26.4 17 52.8 17 80 C11.39 80 5.78 80 0 80 C0 53.6 0 27.2 0 0 Z " fill="#FFFFFF" transform="translate(2718,429)"/>
<path d="M0 0 C5.61 0 11.22 0 17 0 C17 26.4 17 52.8 17 80 C11.39 80 5.78 80 0 80 C0 53.6 0 27.2 0 0 Z " fill="#FFFFFF" transform="translate(2107,429)"/>
<path d="M0 0 C5.61 0 11.22 0 17 0 C17 26.4 17 52.8 17 80 C11.39 80 5.78 80 0 80 C0 53.6 0 27.2 0 0 Z " fill="#FFFFFF" transform="translate(1857,429)"/>
<path d="M0 0 C5.61 0 11.22 0 17 0 C17 26.4 17 52.8 17 80 C11.39 80 5.78 80 0 80 C0 53.6 0 27.2 0 0 Z " fill="#FFFFFF" transform="translate(1126,429)"/>
<path d="M0 0 C5.94 0 11.88 0 18 0 C18 5.94 18 11.88 18 18 C12.06 18 6.12 18 0 18 C0 12.06 0 6.12 0 0 Z " fill="#FFFFFF" transform="translate(2973,491)"/>
<path d="M0 0 C5.94 0 11.88 0 18 0 C18 5.94 18 11.88 18 18 C12.06 18 6.12 18 0 18 C0 12.06 0 6.12 0 0 Z " fill="#FFFFFF" transform="translate(2826,491)"/>
<path d="M0 0 C5.94 0 11.88 0 18 0 C18 5.94 18 11.88 18 18 C12.06 18 6.12 18 0 18 C0 12.06 0 6.12 0 0 Z " fill="#FFFFFF" transform="translate(2405,491)"/>
<path d="M0 0 C5.61 0 11.22 0 17 0 C17 4.62 17 9.24 17 14 C11.39 14 5.78 14 0 14 C0 9.38 0 4.76 0 0 Z " fill="#FFFFFF" transform="translate(2718,410)"/>
<path d="M0 0 C5.61 0 11.22 0 17 0 C17 4.62 17 9.24 17 14 C11.39 14 5.78 14 0 14 C0 9.38 0 4.76 0 0 Z " fill="#FFFFFF" transform="translate(2107,410)"/>
<path d="M0 0 C5.61 0 11.22 0 17 0 C17 4.62 17 9.24 17 14 C11.39 14 5.78 14 0 14 C0 9.38 0 4.76 0 0 Z " fill="#FFFFFF" transform="translate(1857,410)"/>
<path d="M0 0 C5.61 0 11.22 0 17 0 C17 4.62 17 9.24 17 14 C11.39 14 5.78 14 0 14 C0 9.38 0 4.76 0 0 Z " fill="#FFFFFF" transform="translate(1126,410)"/>
<path d="M0 0 C5.28 0 10.56 0 16 0 C16 4.62 16 9.24 16 14 C10.72 14 5.44 14 0 14 C0 9.38 0 4.76 0 0 Z " fill="#FFFFFF" transform="translate(783,410)"/>
<path d="M0 0 C5.28 0 10.56 0 16 0 C16 4.62 16 9.24 16 14 C10.72 14 5.44 14 0 14 C0 9.38 0 4.76 0 0 Z " fill="#FFFFFF" transform="translate(760,410)"/>
</svg>
