<?xml version="1.0" encoding="UTF-8"?>
<svg version="1.1" xmlns="http://www.w3.org/2000/svg" width="506" height="516">
<path d="M0 0 C1.50546025 1.39040843 3.002454 2.7893402 4.49682617 4.19165039 C6.69455336 6.2349253 8.92820557 8.18360716 11.22729492 10.10961914 C57.07497581 50.08425 81.40057437 113.5387675 85.85229492 172.73461914 C85.98227286 175.38291959 86.0919694 178.02248398 86.16479492 180.67211914 C86.18670898 181.4684375 86.20862305 182.26475586 86.23120117 183.08520508 C87.60173914 243.41171779 71.07135293 304.58774958 32.16479492 351.67211914 C31.73489258 352.19676758 31.30499023 352.72141602 30.86206055 353.26196289 C16.38290307 370.89060134 0.43390875 389.15296435 -18.83520508 401.67211914 C-21.83520508 401.67211914 -21.83520508 401.67211914 -23.37817383 400.20336914 C-23.92086914 399.53305664 -24.46356445 398.86274414 -25.02270508 398.17211914 C-28.73087321 393.74724625 -32.71612632 389.71228834 -36.83520508 385.67211914 C-38.19192804 384.34138704 -39.54610973 383.00805894 -40.89770508 381.67211914 C-41.48680664 381.09461914 -42.0759082 380.51711914 -42.68286133 379.92211914 C-44.4704752 378.05339757 -46.14952774 376.15168773 -47.83105469 374.18945312 C-52.91348026 368.34905926 -58.39114928 362.8906769 -63.83911133 357.39477539 C-64.41097609 356.81758696 -64.98284084 356.24039852 -65.57203484 355.64571953 C-68.60000215 352.59118941 -71.63152736 349.54023653 -74.66552734 346.49169922 C-77.14822243 343.99569079 -79.62345253 341.49262968 -82.09228516 338.98291016 C-85.10405605 335.92130381 -88.12840153 332.87264394 -91.16166496 329.83233452 C-92.30158698 328.68578715 -93.43732551 327.5350617 -94.56836128 326.37974739 C-117.43476315 303.05074386 -143.80311651 296.9689615 -175.67138672 296.59423828 C-180.58050119 296.56415024 -185.48855356 296.58446683 -190.39770508 296.60961914 C-196.15208008 296.63024414 -201.90645508 296.65086914 -207.83520508 296.67211914 C-208.16520508 311.19211914 -208.49520508 325.71211914 -208.83520508 340.67211914 C-226.65520508 340.67211914 -244.47520508 340.67211914 -262.83520508 340.67211914 C-262.83520508 310.97211914 -262.83520508 281.27211914 -262.83520508 250.67211914 C-245.70163086 250.63344727 -245.70163086 250.63344727 -228.22192383 250.59399414 C-220.98037028 250.56882417 -213.73884323 250.5426526 -206.49731445 250.51196289 C-195.0063496 250.46344998 -183.51547289 250.41899564 -172.02441406 250.40112305 C-163.6546662 250.38808633 -155.28509801 250.36107024 -146.91545135 250.31750607 C-142.48677581 250.29493659 -138.0583215 250.27920574 -133.62958336 250.28023529 C-129.45405754 250.28098458 -125.27901993 250.26292665 -121.10362053 250.23095131 C-119.57794677 250.22249012 -118.05221801 250.22067648 -116.52653122 250.22631645 C-107.26029587 250.25598631 -97.30393781 250.27580638 -89.84301281 243.99505234 C-85.81705927 239.80213019 -83.93703716 235.30625146 -83.77270508 229.44165039 C-83.99589653 225.27773482 -84.68924351 222.91096534 -86.89770508 219.29711914 C-94.26323652 212.71515487 -103.79914228 212.54488674 -113.2890625 212.55186462 C-114.34674678 212.55058299 -114.34674678 212.55058299 -115.42579842 212.54927546 C-117.76411693 212.54764192 -120.10236204 212.55310683 -122.44067383 212.55859375 C-124.12656147 212.55887611 -125.81244923 212.55871694 -127.49833679 212.55815125 C-132.05764586 212.55786517 -136.61692845 212.56373125 -141.17623138 212.5707252 C-145.94748296 212.57699031 -150.71873518 212.57756504 -155.48999023 212.57875061 C-164.51725971 212.58185463 -173.54451703 212.59005547 -182.57178116 212.6001001 C-192.85230146 212.61129012 -203.13282236 212.61677896 -213.41334724 212.62179554 C-234.5539733 212.63223887 -255.69458842 212.64982029 -276.83520508 212.67211914 C-275.15830682 209.23257751 -273.21681147 206.12280513 -271.08911133 202.93774414 C-270.71850082 202.3820575 -270.34789032 201.82637085 -269.96604919 201.25384521 C-269.17784057 200.07304088 -268.38851213 198.89298337 -267.59814453 197.71362305 C-266.04455822 195.39509217 -264.49556551 193.07356743 -262.95411682 190.74694824 C-262.15967014 189.56847112 -261.34752298 188.40176086 -260.51939392 187.2467041 C-258.21858974 183.99728562 -256.50119094 180.98705747 -255.10888672 177.24829102 C-252.96752748 172.1869343 -250.77400283 168.36801769 -245.83520508 165.67211914 C-234.4325649 163.10305031 -222.36887551 164.09255 -210.77630615 164.57348633 C-206.38635547 164.73821014 -201.99494384 164.81045225 -197.6027832 164.89086914 C-189.00954404 165.06165217 -180.42348436 165.33407072 -171.83520508 165.67211914 C-177.20620794 157.0448916 -182.58186598 148.42556139 -188.14770508 139.92211914 C-189.25193994 138.2294553 -190.35610445 136.53674555 -191.46020508 134.84399414 C-192.01450195 133.99514648 -192.56879883 133.14629883 -193.13989258 132.27172852 C-194.85477584 129.64210913 -196.56457675 127.00925567 -198.27270508 124.37524414 C-204.07043947 115.43568353 -209.88743702 106.51291033 -215.83520508 97.67211914 C-220.02881439 101.40990136 -222.87017463 105.97093814 -225.96020508 110.60961914 C-229.77095319 116.26180258 -233.61863641 121.81500321 -237.83520508 127.17211914 C-241.86068711 132.29842069 -245.56133006 137.58456318 -249.21020508 142.98461914 C-253.76256271 149.71941291 -258.46972394 156.28620377 -263.38769531 162.7578125 C-267.47244198 168.14667273 -271.38548061 173.64253619 -275.26733398 179.17871094 C-278.89629424 184.35142124 -282.5685592 189.49048732 -286.27270508 194.60961914 C-286.8120166 195.3551001 -287.35132813 196.10058105 -287.90698242 196.86865234 C-290.09707845 199.89414246 -292.28893094 202.91835809 -294.48071289 205.94262695 C-300.30983369 213.98840687 -306.11847624 222.04596886 -311.83520508 230.17211914 C-315.94360484 236.01208021 -320.08888618 241.82343331 -324.27270508 247.60961914 C-324.80629639 248.34801025 -325.3398877 249.08640137 -325.88964844 249.84716797 C-328.71926604 253.75898572 -331.55803698 257.66390991 -334.40551758 261.56274414 C-334.99018799 262.36591064 -335.5748584 263.16907715 -336.17724609 263.99658203 C-337.28931525 265.52400042 -338.40419705 267.04937672 -339.52246094 268.57226562 C-345.07213486 276.20450124 -349.48669 282.90036649 -349.35864258 292.64477539 C-347.77695889 301.79257287 -338.61677861 309.31747215 -332.41333008 315.90649414 C-330.37307657 318.09512972 -328.43469024 320.31137435 -326.52270508 322.60961914 C-317.24176438 333.26060346 -306.09459086 342.21718701 -294.83520508 350.67211914 C-294.29492676 351.08526367 -293.75464844 351.4984082 -293.19799805 351.92407227 C-252.66629298 382.8216934 -201.50547853 398.61931764 -150.71020508 392.36743164 C-138.62954542 390.72763383 -126.73993499 388.27267155 -115.17114258 384.40649414 C-112.83520508 383.67211914 -112.83520508 383.67211914 -110.83520508 383.67211914 C-110.83520508 384.33211914 -110.83520508 384.99211914 -110.83520508 385.67211914 C-151.08769099 405.22002178 -196.50728964 413.83346212 -240.83520508 404.67211914 C-241.65311523 404.50583008 -242.47102539 404.33954102 -243.3137207 404.16821289 C-282.12875219 395.99981188 -318.34937021 375.90388664 -347.83520508 349.67211914 C-348.59027344 349.00962158 -348.59027344 349.00962158 -349.3605957 348.33374023 C-369.23155497 330.86693747 -384.49683637 310.45729346 -397.83520508 287.67211914 C-398.40319824 286.72151611 -398.40319824 286.72151611 -398.98266602 285.75170898 C-403.67816468 277.81059002 -405.38706973 271.34298177 -403.27270508 262.25415039 C-399.53876524 251.24979885 -390.77655581 241.83140159 -383.72070312 232.76733398 C-379.82153454 227.72755131 -376.15768171 222.53340968 -372.50317383 217.31469727 C-368.86983891 212.12751226 -365.1812346 206.98419488 -361.46020508 201.85961914 C-355.6288645 193.81657192 -349.92174839 185.69067083 -344.23754883 177.54321289 C-341.11977366 173.0745484 -337.98165604 168.62062223 -334.83520508 164.17211914 C-330.48398746 158.01789072 -326.15427227 151.84895104 -321.83520508 145.67211914 C-317.51613704 139.49528602 -313.18622243 133.32648999 -308.83520508 127.17211914 C-302.73436919 118.54129649 -296.67421956 109.88222806 -290.61743164 101.22045898 C-287.11165265 96.20767527 -283.60301637 91.19689087 -280.09448242 86.18603516 C-276.52042907 81.08117403 -272.94946668 75.9741717 -269.3815918 70.86499023 C-267.61818823 68.34426739 -265.84793163 65.82845788 -264.07739258 63.31274414 C-262.06625354 60.4504225 -260.09019992 57.57096641 -258.15551758 54.65649414 C-249.36019746 41.55524004 -237.85695889 31.47730746 -222.27270508 27.23461914 C-212.98778251 25.62567949 -204.62011637 27.40174689 -196.83520508 32.67211914 C-189.59720804 38.62167691 -184.04967155 46.25174313 -178.38891602 53.65209961 C-176.73154399 55.80689159 -175.05507831 57.94572244 -173.37426758 60.08227539 C-166.27716506 69.11486344 -159.41388461 78.25665201 -152.83520508 87.67211914 C-151.780768 89.17359712 -150.72606413 90.67488776 -149.67114258 92.17602539 C-147.2996793 95.55366714 -144.93463106 98.93569441 -142.57348633 102.32055664 C-140.12303546 105.83327508 -137.66150098 109.33777058 -135.19067383 112.83618164 C-134.57281006 113.71588623 -133.95494629 114.59559082 -133.31835938 115.50195312 C-132.02732844 117.33880444 -130.73051153 119.17160138 -129.42822266 121.00048828 C-125.64864067 126.37783317 -122.10658028 131.81281181 -118.74720764 137.45988464 C-116.81236317 140.70318597 -114.83424728 143.91924847 -112.85519409 147.13571167 C-111.89252615 148.72844042 -110.95112155 150.3342392 -110.03274536 151.95291138 C-105.4327541 160.72606422 -105.4327541 160.72606422 -97.79525757 166.4309082 C-93.44593274 167.25765687 -89.26318972 167.0829411 -84.8729248 166.73820496 C-68.37202929 166.20306015 -50.7090139 175.51730864 -38.92895508 186.48852539 C-25.77785253 200.20394764 -19.83668015 218.94964706 -19.76928711 237.68041992 C-20.15850022 249.44042211 -24.44009683 260.21369456 -32.39770508 268.85961914 C-41.66268087 277.43895156 -52.10103763 281.67982104 -63.83520508 285.67211914 C-60.70948036 288.82284042 -57.58027198 291.9700505 -54.44799805 295.11425781 C-53.38619647 296.18104211 -52.3252995 297.24872767 -51.26538086 298.31738281 C-45.86444163 303.76167236 -40.45200712 309.11890195 -34.61401367 314.10058594 C-31.02417299 317.272121 -27.77364113 320.80711623 -24.50512695 324.30493164 C-22.0730533 326.81621638 -20.41181227 328.46326284 -17.08520508 329.66821289 C-14.64065809 329.90430028 -14.64065809 329.90430028 -12.52270508 327.85961914 C-11.60874646 326.81266964 -10.71538283 325.74762401 -9.83520508 324.67211914 C-9.27188477 324.03532227 -8.70856445 323.39852539 -8.12817383 322.74243164 C26.50615936 281.97126141 39.42474702 223.39657781 35.41479492 171.17211914 C30.53025174 114.0834646 6.63297157 61.96278014 -32.83520508 20.67211914 C-33.47071289 19.99536133 -34.1062207 19.31860352 -34.76098633 18.62133789 C-70.89564971 -18.89316943 -124.1844774 -37.66299684 -174.83520508 -43.32788086 C-175.67825195 -43.42359375 -176.52129883 -43.51930664 -177.38989258 -43.61791992 C-187.43177944 -44.60721598 -197.50458059 -44.56670166 -207.58520508 -44.57788086 C-208.54543579 -44.58021729 -209.5056665 -44.58255371 -210.49499512 -44.58496094 C-228.08913188 -44.60103865 -245.37742359 -43.47489106 -262.83520508 -41.32788086 C-262.83520508 -41.98788086 -262.83520508 -42.64788086 -262.83520508 -43.32788086 C-177.28548116 -80.38628661 -68.75404679 -62.64588662 0 0 Z " fill="#FFFFFF" transform="translate(418.835205078125,61.327880859375)"/>
<path d="M0 0 C10.43478155 9.37150211 20.21723444 19.17763714 28.84765625 30.25 C29.4715625 31.04148437 30.09546875 31.83296875 30.73828125 32.6484375 C34.84765625 37.96758178 34.84765625 37.96758178 34.84765625 40.25 C31.6531993 38.85286388 29.65830813 37.22467102 27.28515625 34.6875 C22.96815792 30.27562259 18.36211909 26.38537028 13.515625 22.56738281 C12.34462125 21.64250924 11.17834895 20.71162861 10.015625 19.77636719 C-26.40155228 -9.47049412 -70.67256967 -28.26112072 -117.77734375 -28.0625 C-118.47033569 -28.06067719 -119.16332764 -28.05885437 -119.87731934 -28.05697632 C-175.40666567 -27.81267266 -228.47231595 -2.69829138 -269.15234375 34.25 C-269.94640625 34.96027344 -270.74046875 35.67054687 -271.55859375 36.40234375 C-283.5296589 47.70112082 -292.71723358 61.66396924 -300.15234375 76.25 C-300.49604004 76.9090332 -300.83973633 77.56806641 -301.19384766 78.24707031 C-308.91604271 93.16964152 -314.09755803 109.05273064 -317.46484375 125.5 C-317.61211914 126.21776611 -317.75939453 126.93553223 -317.91113281 127.67504883 C-320.09747658 139.29160015 -321.47054164 150.90773912 -320.890625 162.72265625 C-319.45805358 192.54434071 -319.45805358 192.54434071 -326.65234375 200.8125 C-328.42773637 202.68252015 -330.25066334 204.46674346 -332.13623047 206.22558594 C-336.1297212 210.23551875 -339.34845888 214.90210234 -342.71484375 219.4375 C-344.04834471 221.18185742 -345.38291726 222.92539636 -346.71875 224.66796875 C-348.75499163 227.34309552 -350.69149102 230.02483899 -352.4921875 232.86328125 C-353.04003906 233.65089844 -353.58789062 234.43851562 -354.15234375 235.25 C-354.81234375 235.25 -355.47234375 235.25 -356.15234375 235.25 C-359.57363888 223.68791567 -362.5130691 212.2141524 -364.15234375 200.25 C-364.29591309 199.21008911 -364.29591309 199.21008911 -364.44238281 198.14916992 C-365.45137595 189.65500275 -365.39602729 181.10417015 -365.40234375 172.5625 C-365.40301849 171.74119598 -365.40369324 170.91989197 -365.40438843 170.07369995 C-365.38684879 156.59424319 -364.66765246 143.52215998 -362.15234375 130.25 C-361.99668945 129.39116211 -361.84103516 128.53232422 -361.68066406 127.64746094 C-350.79535983 69.26659772 -318.4303412 13.34242319 -269.15234375 -20.75 C-198.4331368 -68.98915312 -98.17331355 -68.30102654 0 0 Z " fill="#FFFFFF" transform="translate(365.15234375,84.75)"/>
<path d="M0 0 C3.32642099 1.27245953 6.42398944 2.70318674 9.53515625 4.43359375 C44.85157242 23.70387557 83.11630067 35.26563587 123 40 C124.10730469 40.13277344 125.21460938 40.26554687 126.35546875 40.40234375 C159.67430845 43.61538906 194.55910203 39.44705893 226 28 C226.7847168 27.71817871 227.56943359 27.43635742 228.37792969 27.14599609 C246.03476886 20.71208548 263.71571306 12.55536395 278.79296875 1.23046875 C281 0 281 0 282.953125 -0.01171875 C285.95876633 1.47389404 288.18139361 3.68932452 290.5625 6 C294.56219959 9.78811456 298.62141706 13.37951804 302.9375 16.8125 C306.82844196 19.93874817 310.02481465 22.99888867 313 27 C305.57403896 33.03359335 297.40214921 37.49224208 289 42 C288.35498535 42.34853027 287.7099707 42.69706055 287.04541016 43.05615234 C230.10517426 73.55201462 162.97858977 78.80418956 101.46875 60.37109375 C89.2125315 56.54390232 77.53856898 51.61060311 66 46 C65.21415527 45.62004883 64.42831055 45.24009766 63.61865234 44.84863281 C42.50063819 34.51493705 23.30955387 20.86125851 5.27734375 5.84765625 C2.94002243 3.8925113 2.94002243 3.8925113 0 2 C0 1.34 0 0.68 0 0 Z " fill="#FFFFFF" transform="translate(77,442)"/>
</svg>
